{"glyphs":{"0":{"ha":926,"x_min":117,"x_max":810,"o":"m 353 0 q 263 19 306 0 q 188 70 219 38 q 136 145 156 103 q 117 235 117 188 l 117 807 q 136 894 117 851 q 188 969 156 936 q 263 1022 219 1001 q 353 1042 306 1042 l 574 1042 q 663 1022 621 1042 q 738 969 706 1001 q 790 894 771 936 q 810 807 810 851 l 810 235 q 790 145 810 188 q 738 70 771 103 q 663 19 706 38 q 574 0 621 0 l 353 0 m 579 117 l 579 926 l 347 926 l 347 117 l 579 117 "},"1":{"ha":926,"x_min":232,"x_max":579,"o":"m 579 0 l 347 0 l 347 928 l 232 810 l 232 928 l 347 1042 l 579 1042 l 579 0 "},"2":{"ha":926,"x_min":117,"x_max":810,"o":"m 579 928 l 356 928 q 310 918 332 928 q 269 892 288 908 q 240 855 251 876 q 229 810 229 833 l 117 810 q 137 897 117 856 q 190 971 157 939 q 267 1022 224 1003 q 356 1042 310 1042 l 569 1042 q 658 1022 615 1042 q 735 968 701 1001 q 790 892 769 935 q 810 804 810 850 l 810 643 l 350 174 l 350 115 l 810 115 l 810 0 l 117 0 l 117 161 l 579 635 l 579 928 "},"3":{"ha":925,"x_min":111,"x_max":808,"o":"m 538 926 l 117 926 l 117 1040 l 808 1040 l 808 926 l 507 693 l 574 693 q 660 676 618 693 q 735 628 703 658 q 788 558 768 597 q 808 474 808 518 l 808 235 q 788 148 808 190 q 735 73 768 106 q 660 20 703 40 q 574 0 618 0 l 350 0 q 261 20 304 0 q 185 73 218 40 q 131 148 151 106 q 111 235 111 190 l 226 235 q 260 149 226 182 q 350 115 294 115 l 578 115 l 578 579 l 246 579 l 246 690 l 538 926 "},"4":{"ha":926,"x_min":117,"x_max":926,"o":"m 579 1042 l 810 1042 l 810 461 l 926 461 l 926 347 l 810 347 l 810 0 l 579 0 l 579 347 l 117 347 l 117 581 l 579 1042 m 232 510 l 232 461 l 579 461 l 579 857 l 232 510 "},"5":{"ha":926,"x_min":117,"x_max":810,"o":"m 347 693 l 575 693 q 662 672 619 693 q 737 618 704 651 q 790 542 769 585 q 810 456 810 499 l 810 235 q 790 148 810 190 q 737 73 769 106 q 662 20 704 40 q 575 0 619 0 l 356 0 q 267 20 310 0 q 190 73 224 40 q 137 148 157 106 q 117 235 117 190 l 229 235 q 265 149 229 182 q 356 115 300 115 l 579 115 l 579 579 l 117 579 l 117 1042 l 804 1042 l 804 926 l 347 926 l 347 693 "},"6":{"ha":926,"x_min":117,"x_max":810,"o":"m 579 115 l 579 579 l 347 579 l 347 115 l 579 115 m 701 926 l 535 926 l 347 742 l 347 693 l 574 693 q 663 672 621 693 q 738 618 706 651 q 790 542 771 585 q 810 456 810 499 l 810 235 q 790 145 810 188 q 738 70 771 103 q 663 19 706 38 q 574 0 621 0 l 353 0 q 263 19 306 0 q 188 70 219 38 q 136 145 156 103 q 117 235 117 188 l 117 699 l 461 1042 l 701 1042 l 701 926 "},"7":{"ha":926,"x_min":117,"x_max":810,"o":"m 339 394 l 579 636 l 579 926 l 117 926 l 117 1042 l 810 1042 l 810 628 l 569 383 l 569 0 l 339 0 l 339 394 "},"8":{"ha":924,"x_min":117,"x_max":807,"o":"m 347 926 l 347 579 l 575 579 l 575 926 l 347 926 m 117 679 l 117 807 q 133 898 117 856 q 181 972 150 940 q 255 1023 211 1004 q 351 1042 299 1042 l 567 1042 q 661 1025 617 1042 q 738 978 706 1008 q 788 903 769 947 q 807 807 807 860 l 807 679 q 788 599 807 631 q 745 551 768 568 q 703 526 722 533 q 683 519 683 519 q 703 512 683 519 q 745 485 722 504 q 788 433 768 465 q 807 350 807 400 l 807 235 q 788 138 807 182 q 738 63 769 94 q 661 13 706 31 q 567 -4 617 -4 l 351 -4 q 255 15 299 -4 q 181 68 211 35 q 133 144 150 101 q 117 235 117 188 l 117 350 q 135 435 117 401 q 176 487 154 468 q 217 513 199 506 q 236 519 236 519 q 217 526 236 519 q 176 551 199 533 q 135 599 154 568 q 117 679 117 631 m 575 117 l 575 463 l 347 463 l 347 117 l 575 117 "},"9":{"ha":926,"x_min":117,"x_max":810,"o":"m 347 928 l 347 463 l 579 463 l 579 928 l 347 928 m 232 115 l 390 115 l 579 300 l 579 346 l 353 346 q 261 361 304 346 q 186 407 218 376 q 135 481 154 438 q 117 583 117 525 l 117 804 q 133 897 117 854 q 181 972 150 940 q 255 1023 211 1004 q 353 1042 299 1042 l 578 1042 q 674 1023 632 1042 q 747 972 717 1004 q 794 897 778 940 q 810 804 810 854 l 810 346 l 468 0 l 232 0 l 232 115 "},"\u0007":{"ha":694,"x_min":0,"x_max":0,"o":""},"‛":{"ha":694,"x_min":0,"x_max":0,"o":""},"‟":{"ha":694,"x_min":0,"x_max":0,"o":""},"\u0005":{"ha":733,"x_min":81,"x_max":646,"o":"m 567 1117 l 646 1040 q 509 942 581 975 q 364 908 438 908 q 219 941 292 908 q 81 1040 147 974 l 158 1117 q 258 1047 206 1069 q 363 1024 310 1024 q 469 1047 417 1024 q 567 1117 521 1071 "},"\u0006":{"ha":463,"x_min":121,"x_max":351,"o":"m 351 950 l 121 950 l 121 1181 l 351 1181 l 351 950 "},"\b":{"ha":579,"x_min":74,"x_max":501,"o":"m 288 1339 q 371 1322 332 1339 q 439 1277 410 1306 q 485 1210 468 1249 q 501 1128 501 1171 q 485 1044 501 1083 q 439 976 468 1006 q 371 930 410 947 q 288 913 332 913 q 204 930 243 913 q 136 976 165 947 q 90 1044 107 1006 q 74 1128 74 1083 q 90 1210 74 1171 q 136 1277 107 1249 q 204 1322 165 1306 q 288 1339 243 1339 m 167 1128 q 202 1042 167 1078 q 288 1006 238 1006 q 334 1015 313 1006 q 372 1042 356 1025 q 397 1081 388 1058 q 407 1128 407 1103 q 397 1174 407 1153 q 372 1212 388 1196 q 334 1238 356 1228 q 288 1247 313 1247 q 240 1238 263 1247 q 202 1212 218 1228 q 176 1174 186 1196 q 167 1128 167 1153 "},"\n":{"ha":617,"x_min":100,"x_max":517,"o":"m 290 1193 l 208 943 l 100 943 l 183 1193 l 290 1193 m 517 1193 l 433 943 l 326 943 l 407 1193 l 517 1193 "},"\u000b":{"ha":463,"x_min":128,"x_max":369,"o":"m 261 0 l 261 -86 q 291 -150 261 -136 q 369 -164 321 -164 l 369 -260 q 256 -254 303 -260 q 181 -230 210 -249 q 140 -177 153 -211 q 128 -85 128 -143 l 128 0 l 261 0 "},"\f":{"ha":733,"x_min":103,"x_max":656,"o":"m 369 921 l 103 1189 l 253 1189 l 376 1065 l 513 1206 l 656 1206 l 369 921 "},"\r":{"ha":463,"x_min":117,"x_max":347,"o":"m 347 0 l 117 0 l 117 810 l 347 810 l 347 0 "},"\u0019":{"ha":1004,"x_min":50,"x_max":989,"o":"m 185 -99 l 989 1110 l 856 1110 l 50 -99 l 185 -99 "},"\u001a":{"ha":1118,"x_min":117,"x_max":1004,"o":"m 232 697 l 117 697 l 117 813 l 232 813 l 232 928 q 242 976 232 953 q 270 1015 253 999 q 311 1042 288 1032 q 360 1053 335 1053 l 694 1053 l 694 932 l 463 932 l 463 813 l 579 813 l 579 697 l 463 697 l 463 0 l 232 0 l 232 697 m 1004 0 l 772 0 l 772 810 l 1004 810 l 1004 0 m 1004 926 l 772 926 l 772 1042 l 1004 1042 l 1004 926 "},"\u001b":{"ha":1042,"x_min":117,"x_max":926,"o":"m 694 926 l 463 926 l 463 810 l 579 810 l 579 694 l 463 694 l 463 0 l 232 0 l 232 694 l 117 694 l 117 810 l 232 810 l 232 917 q 242 965 232 942 q 270 1005 253 988 q 311 1032 288 1022 q 360 1042 335 1042 l 926 1042 l 926 0 l 694 0 l 694 926 "},"\u001c":{"ha":810,"x_min":26,"x_max":694,"o":"m 117 399 l 117 1042 l 347 1042 l 347 592 l 501 746 l 501 596 l 347 442 l 347 115 l 694 115 l 694 0 l 117 0 l 117 249 l 26 158 l 26 307 l 117 399 "},"\u001d":{"ha":463,"x_min":26,"x_max":449,"o":"m 117 397 l 117 1042 l 347 1042 l 347 593 l 449 694 l 449 543 l 347 442 l 347 0 l 117 0 l 117 249 l 26 158 l 26 307 l 117 397 "},"\u001e":{"ha":938,"x_min":117,"x_max":821,"o":"m 821 1042 l 821 772 l 347 339 l 347 117 l 821 117 l 821 0 l 117 0 l 117 275 l 590 710 l 590 926 l 117 926 l 117 1042 l 821 1042 m 482 1074 l 269 1288 l 389 1288 l 488 1189 l 597 1301 l 711 1301 l 482 1074 "},"\u001f":{"ha":938,"x_min":117,"x_max":821,"o":"m 821 810 l 821 628 l 347 161 l 347 115 l 821 115 l 821 0 l 117 0 l 117 197 l 590 667 l 590 696 l 117 696 l 117 810 l 821 810 m 481 921 l 214 1189 l 364 1189 l 488 1065 l 624 1206 l 767 1206 l 481 921 "}," ":{"ha":444,"x_min":0,"x_max":0,"o":""},"!":{"ha":694,"x_min":232,"x_max":463,"o":"m 463 0 l 232 0 l 232 232 l 463 232 l 463 0 m 463 347 l 232 347 l 232 1042 l 463 1042 l 463 347 "},"\"":{"ha":810,"x_min":232,"x_max":579,"o":"m 347 696 l 232 696 l 232 1043 l 347 1043 l 347 696 m 579 696 l 463 696 l 463 1043 l 579 1043 l 579 696 "},"#":{"ha":1040,"x_min":106,"x_max":939,"o":"m 939 843 l 939 728 l 763 728 l 708 535 l 833 535 l 833 418 l 678 418 l 617 203 l 517 203 l 574 418 l 358 418 l 297 203 l 196 203 l 254 418 l 106 418 l 106 535 l 288 535 l 339 728 l 210 728 l 210 843 l 372 843 l 429 1044 l 529 1044 l 474 843 l 693 843 l 749 1044 l 850 1044 l 794 843 l 939 843 m 442 728 l 389 535 l 606 535 l 661 728 l 442 728 "},"$":{"ha":810,"x_min":117,"x_max":694,"o":"m 117 610 l 117 846 q 135 915 117 881 q 184 978 153 950 q 257 1024 215 1007 q 347 1042 299 1042 l 347 1161 l 464 1161 l 464 1042 q 554 1023 513 1042 q 627 973 596 1004 q 676 899 658 942 q 694 810 694 857 l 581 810 q 556 897 581 865 q 464 928 531 928 l 464 638 l 694 450 l 694 239 q 678 147 694 190 q 631 70 661 103 q 558 19 601 38 q 464 0 515 0 l 464 -115 l 347 -115 l 347 0 q 257 19 299 0 q 184 69 215 38 q 135 145 153 101 q 117 239 117 189 l 233 239 q 264 149 233 182 q 347 117 294 117 l 347 424 l 117 610 m 464 328 l 464 117 q 550 145 519 117 q 581 235 581 174 l 464 328 m 347 733 l 347 928 q 298 918 319 928 q 262 893 276 908 q 240 859 247 878 q 233 821 233 840 l 347 733 "},"%":{"ha":1168,"x_min":117,"x_max":1053,"o":"m 214 840 q 222 799 214 818 q 245 765 231 779 q 280 742 260 750 q 322 733 300 733 q 365 742 344 733 q 399 766 385 751 q 422 800 414 781 q 431 840 431 819 q 399 917 431 885 q 322 950 367 950 q 246 918 278 950 q 214 840 214 886 m 528 840 q 512 761 528 799 q 468 695 496 724 q 403 651 440 667 q 322 635 365 635 q 242 651 279 635 q 176 695 204 667 q 133 761 149 724 q 117 840 117 799 q 133 921 117 883 q 177 986 149 958 q 243 1031 206 1014 q 322 1047 281 1047 l 894 1047 l 388 0 l 250 0 l 711 943 l 501 943 q 522 894 515 915 q 528 840 528 872 m 846 414 q 926 397 889 414 q 992 353 964 381 q 1037 288 1021 325 q 1053 207 1053 250 q 1037 126 1053 164 q 992 60 1021 89 q 926 16 964 32 q 846 0 889 0 q 765 16 803 0 q 699 60 728 32 q 655 126 671 89 q 639 207 639 164 q 655 288 639 250 q 699 353 671 325 q 765 397 728 381 q 846 414 803 414 m 735 207 q 767 130 735 163 q 846 97 800 97 q 888 106 868 97 q 924 130 908 115 q 949 165 940 144 q 958 207 958 185 q 925 287 958 254 q 846 319 892 319 q 767 287 799 319 q 735 207 735 254 "},"&":{"ha":1171,"x_min":117,"x_max":1054,"o":"m 804 468 l 804 239 q 786 142 804 186 q 737 66 768 97 q 662 17 706 35 q 568 0 618 0 l 350 0 q 254 19 297 0 q 181 70 211 38 q 133 147 150 103 q 117 239 117 190 l 117 411 q 135 514 117 472 q 176 581 154 556 q 217 617 199 606 q 236 628 236 628 q 217 633 236 628 q 176 658 199 639 q 135 711 154 676 q 117 804 117 746 q 133 895 117 851 q 181 971 150 939 q 254 1022 211 1003 q 350 1042 297 1042 l 568 1042 q 662 1025 618 1042 q 737 977 706 1008 q 786 902 768 946 q 804 804 804 858 l 804 706 l 575 706 l 575 925 l 344 925 l 344 706 l 457 706 l 457 590 l 344 590 l 344 115 l 575 115 l 575 582 q 762 594 690 582 q 873 634 833 607 q 926 705 913 661 q 939 810 939 749 l 1054 810 q 1024 635 1054 701 q 951 531 993 568 q 868 481 910 494 q 804 468 826 468 "},"'":{"ha":347,"x_min":117,"x_max":232,"o":"m 232 694 l 117 694 l 117 1043 l 232 1043 l 232 694 "},"(":{"ha":581,"x_min":117,"x_max":464,"o":"m 117 883 l 347 1113 l 464 1113 l 464 999 l 347 999 l 347 -43 l 464 -43 l 464 -160 l 347 -160 l 117 74 l 117 883 "},")":{"ha":581,"x_min":117,"x_max":464,"o":"m 464 74 l 233 -160 l 117 -160 l 117 -43 l 233 -43 l 233 999 l 117 999 l 117 1113 l 233 1113 l 464 883 l 464 74 "},"*":{"ha":856,"x_min":96,"x_max":740,"o":"m 740 633 l 683 531 l 475 653 l 475 411 l 361 411 l 361 653 l 153 531 l 96 633 l 304 757 l 96 881 l 153 979 l 361 860 l 361 1103 l 475 1103 l 475 860 l 683 979 l 740 881 l 532 757 l 740 633 "},"+":{"ha":851,"x_min":128,"x_max":706,"o":"m 474 579 l 706 579 l 706 461 l 474 461 l 474 229 l 360 229 l 360 461 l 128 461 l 128 579 l 360 579 l 360 810 l 474 810 l 474 579 "},",":{"ha":463,"x_min":117,"x_max":347,"o":"m 347 -121 l 229 -235 l 138 -235 l 138 -172 l 229 -82 l 229 0 l 117 0 l 117 232 l 347 232 l 347 -121 "},"-":{"ha":810,"x_min":117,"x_max":694,"o":"m 117 461 l 117 579 l 694 579 l 694 461 l 117 461 "},".":{"ha":463,"x_min":117,"x_max":347,"o":"m 347 0 l 117 0 l 117 232 l 347 232 l 347 0 "},"/":{"ha":813,"x_min":117,"x_max":696,"o":"m 117 -6 l 581 1113 l 696 1113 l 232 -6 l 117 -6 "},":":{"ha":463,"x_min":117,"x_max":347,"o":"m 347 0 l 117 0 l 117 232 l 347 232 l 347 0 m 347 579 l 117 579 l 117 810 l 347 810 l 347 579 "},";":{"ha":463,"x_min":117,"x_max":347,"o":"m 347 579 l 117 579 l 117 810 l 347 810 l 347 579 m 347 -121 l 229 -235 l 138 -235 l 138 -172 l 229 -82 l 229 0 l 117 0 l 117 232 l 347 232 l 347 -121 "},"<":{"ha":694,"x_min":81,"x_max":639,"o":"m 81 522 l 407 869 l 639 869 l 313 522 l 639 175 l 407 175 l 81 522 "},"=":{"ha":926,"x_min":117,"x_max":810,"o":"m 117 579 l 117 694 l 810 694 l 810 579 l 117 579 m 117 347 l 117 463 l 810 463 l 810 347 l 117 347 "},">":{"ha":694,"x_min":81,"x_max":639,"o":"m 313 175 l 81 175 l 407 522 l 81 869 l 313 869 l 639 522 l 313 175 "},"?":{"ha":924,"x_min":117,"x_max":807,"o":"m 579 0 l 347 0 l 347 232 l 579 232 l 579 0 m 807 749 l 579 497 l 579 360 l 347 360 l 347 510 l 579 761 l 579 928 l 356 928 q 310 917 332 928 q 269 890 288 907 q 240 850 251 872 q 229 804 229 828 l 117 804 q 138 892 117 850 q 192 968 158 935 q 268 1022 225 1001 q 356 1042 311 1042 l 567 1042 q 654 1022 611 1042 q 731 968 697 1001 q 786 892 765 935 q 807 804 807 850 l 807 749 "},"@":{"ha":1272,"x_min":117,"x_max":1158,"o":"m 968 347 q 1022 371 1001 347 q 1042 428 1042 394 l 1042 611 q 1026 689 1042 653 q 985 752 1011 725 q 923 794 958 779 q 847 810 888 810 l 424 810 q 348 794 383 810 q 287 752 313 779 q 247 689 261 725 q 232 611 232 653 l 232 318 q 291 171 232 221 q 444 121 350 121 l 926 121 l 926 -4 l 411 -4 q 299 18 353 -4 q 205 79 246 40 q 140 171 164 118 q 117 285 117 224 l 117 643 q 141 753 117 701 q 205 844 165 806 q 294 904 244 882 q 394 926 344 926 l 863 926 q 969 903 917 926 q 1064 842 1022 881 q 1132 754 1106 804 q 1158 650 1158 704 l 1158 351 q 1149 310 1158 331 q 1123 272 1139 289 q 1085 243 1107 254 q 1038 232 1063 232 l 519 232 q 431 267 467 232 q 396 356 396 303 l 396 578 q 406 623 396 601 q 434 660 417 644 q 474 685 451 676 q 519 694 496 694 l 860 694 l 860 347 l 968 347 m 567 581 q 513 528 513 581 l 513 406 q 526 365 513 382 q 567 347 540 347 l 744 347 l 744 581 l 567 581 "},"A":{"ha":926,"x_min":121,"x_max":811,"o":"m 357 1042 l 571 1042 q 656 1022 613 1042 q 733 970 699 1003 q 789 895 767 938 q 811 807 811 853 l 811 0 q 762 -1 796 0 q 690 -1 728 -1 q 622 -1 654 -1 q 579 0 590 -1 l 579 463 l 351 463 l 351 0 l 121 0 l 121 807 q 142 896 121 853 q 198 971 164 939 q 274 1022 232 1003 q 357 1042 317 1042 m 351 581 l 579 581 l 579 928 l 351 928 l 351 581 "},"B":{"ha":926,"x_min":135,"x_max":828,"o":"m 135 0 l 135 1042 l 594 1042 q 685 1025 642 1042 q 759 978 728 1008 q 809 904 790 947 q 828 808 828 861 l 828 685 q 809 603 828 635 q 768 553 790 571 q 727 529 746 536 q 708 522 708 522 q 727 514 708 522 q 768 485 746 506 q 809 433 790 465 q 828 353 828 400 l 828 235 q 811 146 828 189 q 764 71 794 103 q 690 19 733 39 q 594 0 647 0 l 135 0 m 365 117 l 597 117 l 597 464 l 365 464 l 365 117 m 365 581 l 597 581 l 597 928 l 365 928 l 365 581 "},"C":{"ha":926,"x_min":138,"x_max":831,"o":"m 596 1042 q 688 1025 646 1042 q 763 978 731 1008 q 813 904 794 947 q 831 808 831 861 l 717 808 q 683 895 717 864 q 596 926 650 926 l 368 926 l 368 115 l 596 115 q 642 124 619 115 q 681 149 664 133 q 707 186 697 164 q 717 235 717 208 l 831 235 q 813 140 831 183 q 763 66 794 97 q 688 17 731 35 q 596 0 646 0 l 376 0 q 279 17 324 0 q 203 67 235 35 q 155 143 172 99 q 138 240 138 188 l 138 803 q 155 894 138 850 q 203 970 172 938 q 279 1022 235 1003 q 376 1042 324 1042 l 596 1042 "},"D":{"ha":926,"x_min":117,"x_max":810,"o":"m 117 0 l 117 1042 l 574 1042 q 663 1023 619 1042 q 738 972 706 1004 q 790 896 771 939 q 810 806 810 853 l 810 236 q 790 146 810 189 q 738 71 771 103 q 663 19 706 39 q 574 0 619 0 l 117 0 m 347 117 l 579 117 l 579 926 l 347 926 l 347 117 "},"E":{"ha":810,"x_min":117,"x_max":694,"o":"m 579 463 l 347 463 l 347 117 l 694 117 l 694 0 l 117 0 l 117 1042 l 694 1042 l 694 926 l 347 926 l 347 581 l 579 581 l 579 463 "},"F":{"ha":810,"x_min":117,"x_max":694,"o":"m 579 463 l 347 463 l 347 0 l 117 0 l 117 1042 l 694 1042 l 694 926 l 347 926 l 347 579 l 579 579 l 579 463 "},"G":{"ha":926,"x_min":117,"x_max":810,"o":"m 463 464 l 463 582 l 810 582 l 810 236 q 792 146 810 189 q 744 71 775 103 q 669 19 713 39 q 574 0 626 0 l 351 0 q 259 19 301 0 q 185 69 217 38 q 135 144 153 101 q 117 236 117 188 l 117 806 q 135 892 117 850 q 185 968 153 935 q 260 1022 217 1001 q 351 1042 303 1042 l 572 1042 q 661 1022 618 1042 q 738 969 704 1001 q 790 894 771 936 q 810 807 810 851 l 696 807 q 671 895 696 864 q 603 926 646 926 l 347 926 l 347 117 l 579 117 l 579 464 l 463 464 "},"H":{"ha":926,"x_min":117,"x_max":810,"o":"m 579 1042 l 810 1042 l 810 0 l 579 0 l 579 463 l 347 463 l 347 0 l 117 0 l 117 1042 l 347 1042 l 347 581 l 579 581 l 579 1042 "},"I":{"ha":694,"x_min":232,"x_max":463,"o":"m 463 0 l 232 0 l 232 1042 l 463 1042 l 463 0 "},"J":{"ha":810,"x_min":0,"x_max":694,"o":"m 694 1042 l 694 235 q 675 145 694 188 q 623 70 656 103 q 547 19 590 38 q 457 0 504 0 l 239 0 q 147 19 190 0 q 72 70 104 38 q 19 145 39 103 q 0 235 0 188 l 0 451 l 232 451 l 232 115 l 463 115 l 463 1042 l 694 1042 "},"K":{"ha":1042,"x_min":117,"x_max":926,"o":"m 694 1042 l 926 1042 l 400 543 l 926 0 l 694 0 l 347 351 l 347 0 l 117 0 l 117 1042 l 347 1042 l 347 692 l 694 1042 "},"L":{"ha":810,"x_min":117,"x_max":694,"o":"m 347 115 l 694 115 l 694 0 l 117 0 l 117 1042 l 347 1042 l 347 115 "},"M":{"ha":1389,"x_min":117,"x_max":1272,"o":"m 171 1042 l 696 528 l 1219 1042 l 1272 1042 l 1272 0 l 1042 0 l 1042 647 l 650 233 l 232 647 l 232 0 l 117 0 l 117 1042 l 171 1042 "},"N":{"ha":1042,"x_min":117,"x_max":926,"o":"m 232 608 l 232 0 l 117 0 l 117 1042 l 171 1042 l 810 439 l 810 1042 l 926 1042 l 926 0 l 871 0 l 232 608 "},"O":{"ha":926,"x_min":117,"x_max":810,"o":"m 353 0 q 263 19 306 0 q 188 70 221 38 q 136 145 156 103 q 117 235 117 188 l 117 807 q 135 894 117 851 q 186 969 154 936 q 261 1022 218 1001 q 353 1042 304 1042 l 574 1042 q 665 1022 622 1042 q 740 969 708 1001 q 791 894 772 936 q 810 807 810 851 l 810 235 q 790 145 810 188 q 738 70 771 103 q 663 19 706 38 q 574 0 621 0 l 353 0 m 579 117 l 579 926 l 347 926 l 347 117 l 579 117 "},"P":{"ha":926,"x_min":117,"x_max":810,"o":"m 347 578 l 579 578 l 579 926 l 347 926 l 347 578 m 579 463 l 347 463 l 347 0 l 117 0 l 117 1042 l 579 1042 q 664 1024 622 1042 q 738 976 706 1007 q 790 902 771 944 q 810 810 810 860 l 810 694 q 792 610 810 651 q 742 535 774 568 q 669 483 711 503 q 579 463 628 463 "},"Q":{"ha":926,"x_min":117,"x_max":810,"o":"m 810 0 l 810 -121 l 579 -121 l 579 0 l 353 0 q 258 16 301 0 q 184 62 215 32 q 135 135 153 92 q 117 235 117 179 l 117 807 q 133 894 117 851 q 178 969 149 936 q 251 1022 208 1001 q 347 1042 293 1042 l 572 1042 q 669 1024 625 1042 q 744 974 713 1006 q 792 899 775 942 q 810 807 810 857 l 810 235 q 795 141 810 182 q 756 71 781 100 q 698 24 731 42 q 629 0 665 6 l 810 0 m 579 117 l 579 926 l 347 926 l 347 117 l 579 117 "},"R":{"ha":926,"x_min":117,"x_max":810,"o":"m 347 581 l 579 581 l 579 928 l 347 928 l 347 581 m 117 0 l 117 1042 l 579 1042 q 674 1025 632 1042 q 747 978 717 1008 q 794 904 778 947 q 810 810 810 861 l 810 710 q 790 613 810 650 q 748 556 771 576 q 706 529 725 536 q 686 522 686 522 q 706 513 686 522 q 748 481 725 504 q 790 420 771 458 q 810 322 810 382 l 810 0 l 579 0 l 579 463 l 347 463 l 347 0 l 117 0 "},"S":{"ha":807,"x_min":117,"x_max":693,"o":"m 117 724 l 117 807 q 135 899 117 857 q 187 974 154 942 q 263 1024 219 1006 q 357 1042 307 1042 l 456 1042 q 547 1023 504 1042 q 623 973 590 1004 q 674 899 656 942 q 693 810 693 857 l 579 810 q 542 897 579 865 q 439 928 506 928 l 347 928 l 347 764 q 373 714 347 743 q 437 649 399 685 q 519 574 475 614 q 602 491 564 533 q 666 405 640 449 q 692 319 692 361 l 692 235 q 674 145 692 188 q 626 70 657 103 q 551 19 594 38 q 454 0 507 0 l 357 0 q 263 19 307 0 q 187 69 219 38 q 135 144 154 101 q 117 235 117 186 l 233 235 q 267 149 233 182 q 357 115 301 115 l 463 115 l 463 285 q 437 342 463 310 q 373 411 411 375 q 290 487 335 447 q 206 567 244 526 q 142 647 168 607 q 117 724 117 686 "},"T":{"ha":694,"x_min":0,"x_max":694,"o":"m 694 1042 l 694 926 l 463 926 l 463 0 l 232 0 l 232 926 l 0 926 l 0 1042 l 694 1042 "},"U":{"ha":926,"x_min":117,"x_max":810,"o":"m 347 1042 l 347 115 l 579 115 l 579 1042 l 810 1042 l 810 235 q 791 148 810 190 q 740 73 772 106 q 665 20 708 40 q 574 0 622 0 l 353 0 q 261 20 304 0 q 186 73 218 40 q 135 148 154 106 q 117 235 117 190 l 117 1042 l 347 1042 "},"V":{"ha":926,"x_min":117,"x_max":810,"o":"m 347 1042 l 347 117 l 464 117 l 579 232 l 579 1042 l 810 1042 l 810 290 l 517 0 l 117 0 l 117 1042 l 347 1042 "},"W":{"ha":1389,"x_min":117,"x_max":1272,"o":"m 579 1042 l 810 1042 l 810 117 l 921 117 l 1042 235 l 1042 1042 l 1272 1042 l 1272 300 l 974 0 l 117 0 l 117 1042 l 347 1042 l 347 117 l 579 117 l 579 1042 "},"X":{"ha":926,"x_min":117,"x_max":810,"o":"m 117 1042 l 347 1042 l 347 581 l 579 581 l 579 1042 l 810 1042 l 810 694 q 790 606 810 640 q 748 553 771 572 q 706 528 725 535 q 686 522 686 522 q 706 515 686 522 q 748 488 725 507 q 790 434 771 468 q 810 347 810 400 l 810 0 l 579 0 l 579 463 l 347 463 l 347 0 l 117 0 l 117 347 q 135 437 117 403 q 176 490 154 471 q 217 515 199 508 q 236 522 236 522 q 217 528 236 522 q 176 553 199 535 q 135 606 154 572 q 117 694 117 640 l 117 1042 "},"Y":{"ha":926,"x_min":117,"x_max":810,"o":"m 347 467 l 117 696 l 117 1042 l 347 1042 l 347 635 l 463 519 l 579 635 l 579 1042 l 810 1042 l 810 696 l 579 467 l 579 0 l 347 0 l 347 467 "},"Z":{"ha":938,"x_min":117,"x_max":821,"o":"m 821 1042 l 821 772 l 347 339 l 347 117 l 821 117 l 821 0 l 117 0 l 117 275 l 590 710 l 590 926 l 117 926 l 117 1042 l 821 1042 "},"[":{"ha":579,"x_min":117,"x_max":463,"o":"m 117 1108 l 463 1108 l 463 993 l 347 993 l 347 -50 l 463 -50 l 463 -165 l 117 -165 l 117 1108 "},"\\":{"ha":890,"x_min":128,"x_max":764,"o":"m 638 -117 l 128 1111 l 254 1111 l 764 -117 l 638 -117 "},"]":{"ha":579,"x_min":117,"x_max":463,"o":"m 463 -165 l 117 -165 l 117 -50 l 232 -50 l 232 993 l 117 993 l 117 1108 l 463 1108 l 463 -165 "},"^":{"ha":942,"x_min":183,"x_max":776,"o":"m 479 1072 l 776 696 l 661 696 l 479 928 l 297 696 l 183 696 l 479 1072 "},"_":{"ha":926,"x_min":0,"x_max":926,"o":"m 0 117 l 926 117 l 926 0 l 0 0 l 0 117 "},"`":{"ha":639,"x_min":171,"x_max":482,"o":"m 286 1111 l 482 879 l 367 879 l 171 1111 l 286 1111 "},"a":{"ha":926,"x_min":117,"x_max":810,"o":"m 358 694 q 258 672 286 694 q 229 606 229 650 l 117 606 q 175 752 117 694 q 356 810 233 810 l 569 810 q 669 790 625 810 q 745 736 714 769 q 793 660 776 703 q 810 572 810 617 l 810 0 l 350 0 q 260 17 303 0 q 186 65 218 33 q 135 140 154 96 q 117 239 117 185 l 117 363 q 137 447 117 408 q 190 515 157 486 q 264 561 222 544 q 350 578 306 578 l 579 578 l 579 694 l 358 694 m 579 463 l 347 463 l 347 117 l 579 117 l 579 463 "},"b":{"ha":926,"x_min":117,"x_max":810,"o":"m 347 1042 l 347 810 l 572 810 q 667 790 624 810 q 743 737 711 769 q 792 662 775 704 q 810 574 810 619 l 810 235 q 794 148 810 190 q 747 73 778 106 q 672 20 717 40 q 572 0 628 0 l 117 0 l 117 1042 l 347 1042 m 347 117 l 579 117 l 579 694 l 347 694 l 347 117 "},"c":{"ha":817,"x_min":117,"x_max":701,"o":"m 347 117 l 458 117 q 508 128 485 117 q 549 157 532 139 q 576 198 567 175 q 586 246 586 221 l 701 246 q 681 156 701 200 q 626 77 660 111 q 549 22 592 43 q 461 0 506 0 l 351 0 q 265 20 307 0 q 190 74 222 40 q 137 150 157 107 q 117 239 117 193 l 117 572 q 137 660 117 617 q 190 736 157 703 q 265 790 224 769 q 351 810 307 810 l 461 810 q 549 789 506 810 q 626 734 592 768 q 681 656 660 700 q 701 565 701 611 l 586 565 q 576 612 586 589 q 548 653 565 635 q 508 684 531 672 q 458 696 485 696 l 347 696 l 347 117 "},"d":{"ha":926,"x_min":117,"x_max":810,"o":"m 810 1042 l 810 0 l 356 0 q 268 20 311 0 q 192 73 225 40 q 138 148 158 106 q 117 235 117 190 l 117 574 q 138 662 117 619 q 192 737 158 704 q 268 790 225 769 q 356 810 311 810 l 579 810 l 579 1042 l 810 1042 m 579 694 l 347 694 l 347 117 l 579 117 l 579 694 "},"e":{"ha":924,"x_min":117,"x_max":807,"o":"m 347 347 l 347 117 l 563 117 q 611 126 588 117 q 653 150 635 135 q 682 186 671 165 q 693 232 693 207 l 807 232 q 786 144 807 186 q 731 70 765 103 q 654 19 697 38 q 567 0 611 0 l 351 0 q 260 21 303 0 q 186 76 218 42 q 135 153 154 110 q 117 239 117 196 l 117 572 q 135 660 117 617 q 187 736 154 703 q 262 790 219 769 q 351 810 304 810 l 567 810 q 661 790 617 810 q 738 736 706 769 q 788 660 769 703 q 807 572 807 617 l 807 347 l 347 347 m 575 463 l 575 696 l 347 696 l 347 463 l 575 463 "},"f":{"ha":694,"x_min":117,"x_max":694,"o":"m 232 697 l 117 697 l 117 813 l 232 813 l 232 928 q 242 976 232 953 q 270 1015 253 999 q 311 1042 288 1032 q 360 1053 335 1053 l 694 1053 l 694 932 l 463 932 l 463 813 l 579 813 l 579 697 l 463 697 l 463 0 l 232 0 l 232 697 "},"g":{"ha":926,"x_min":117,"x_max":810,"o":"m 579 696 l 347 696 l 347 156 l 579 156 l 579 696 m 579 -162 l 579 39 l 356 39 q 255 58 299 39 q 180 110 211 78 q 133 185 149 142 q 117 274 117 228 l 117 575 q 135 663 117 621 q 184 739 153 706 q 259 792 215 772 q 356 813 303 813 l 810 813 l 810 -39 q 792 -142 810 -97 q 741 -217 774 -187 q 665 -263 708 -247 q 569 -279 621 -279 l 356 -279 q 262 -262 306 -279 q 186 -215 218 -244 q 135 -142 154 -185 q 117 -50 117 -100 l 229 -50 q 240 -94 229 -74 q 269 -129 251 -114 q 311 -153 288 -144 q 358 -162 335 -162 l 579 -162 "},"h":{"ha":926,"x_min":117,"x_max":810,"o":"m 117 0 l 117 1042 l 347 1042 l 347 810 l 572 810 q 666 791 622 810 q 742 740 710 772 q 792 665 774 708 q 810 574 810 622 l 810 0 l 579 0 l 579 696 l 347 696 l 347 0 l 117 0 "},"i":{"ha":463,"x_min":117,"x_max":347,"o":"m 347 0 l 117 0 l 117 810 l 347 810 l 347 0 m 347 926 l 117 926 l 117 1042 l 347 1042 l 347 926 "},"j":{"ha":699,"x_min":0,"x_max":583,"o":"m 583 926 l 351 926 l 351 1042 l 583 1042 l 583 926 m 583 -53 q 561 -138 583 -97 q 504 -210 539 -179 q 426 -260 469 -242 q 343 -279 383 -279 l 239 -279 q 150 -260 193 -279 q 74 -208 107 -240 q 20 -135 40 -176 q 0 -49 0 -93 l 117 -49 q 156 -135 117 -106 q 244 -164 194 -164 l 351 -164 l 351 810 l 583 810 l 583 -53 "},"k":{"ha":925,"x_min":117,"x_max":808,"o":"m 582 810 l 808 810 l 406 406 l 808 -6 l 583 -6 l 347 232 l 347 0 l 117 0 l 117 1042 l 347 1042 l 347 574 l 582 810 "},"l":{"ha":463,"x_min":117,"x_max":347,"o":"m 347 0 l 117 0 l 117 1042 l 347 1042 l 347 0 "},"m":{"ha":1389,"x_min":117,"x_max":1272,"o":"m 579 694 l 347 694 l 347 0 l 117 0 l 117 810 l 1038 810 q 1128 790 1085 810 q 1203 737 1171 769 q 1253 662 1235 704 q 1272 574 1272 619 l 1272 0 l 1042 0 l 1042 694 l 810 694 l 810 0 l 579 0 l 579 694 "},"n":{"ha":926,"x_min":117,"x_max":810,"o":"m 569 810 q 663 790 619 810 q 740 736 707 769 q 791 660 772 703 q 810 572 810 617 l 810 0 l 579 0 l 579 694 l 347 694 l 347 0 l 117 0 l 117 810 l 569 810 "},"o":{"ha":926,"x_min":117,"x_max":810,"o":"m 353 0 q 257 19 300 0 q 183 69 214 38 q 134 145 151 101 q 117 239 117 189 l 117 572 q 135 663 117 619 q 185 738 153 706 q 260 790 217 771 q 353 810 303 810 l 572 810 q 669 790 625 810 q 744 738 713 771 q 792 663 775 706 q 810 572 810 619 l 810 239 q 792 145 810 189 q 744 69 775 101 q 669 19 713 38 q 572 0 625 0 l 353 0 m 579 117 l 579 694 l 347 694 l 347 117 l 579 117 "},"p":{"ha":926,"x_min":117,"x_max":810,"o":"m 117 -232 l 117 810 l 572 810 q 666 790 622 810 q 742 736 710 769 q 792 660 774 703 q 810 572 810 618 l 810 239 q 793 153 810 196 q 745 76 776 110 q 670 21 714 42 q 572 0 626 0 l 347 0 l 347 -232 l 117 -232 m 347 117 l 579 117 l 579 694 l 347 694 l 347 117 "},"q":{"ha":926,"x_min":117,"x_max":810,"o":"m 579 -232 l 579 0 l 356 0 q 268 21 311 0 q 192 75 225 42 q 138 150 158 108 q 117 235 117 192 l 117 574 q 138 662 117 619 q 192 737 158 704 q 268 790 225 769 q 356 810 311 810 l 810 810 l 810 -232 l 579 -232 m 579 696 l 347 696 l 347 115 l 579 115 l 579 696 "},"r":{"ha":694,"x_min":117,"x_max":694,"o":"m 117 0 l 117 810 l 347 810 l 347 696 q 369 714 347 696 q 434 753 390 732 q 542 792 478 774 q 694 810 607 810 l 694 696 q 553 676 617 696 q 443 632 489 656 q 372 588 397 608 q 347 568 347 568 l 347 0 l 117 0 "},"s":{"ha":807,"x_min":117,"x_max":692,"o":"m 117 524 l 117 604 q 135 690 117 651 q 187 755 154 728 q 263 796 219 782 q 357 810 307 810 l 454 810 q 546 791 503 810 q 622 741 589 772 q 673 668 654 710 q 692 579 692 626 l 578 579 q 546 663 578 632 q 461 694 514 694 l 347 694 l 347 617 l 692 322 l 692 235 q 674 145 692 188 q 626 70 657 103 q 551 19 594 38 q 454 0 507 0 l 357 0 q 263 18 307 0 q 187 68 219 36 q 135 142 154 100 q 117 232 117 183 l 233 232 q 267 147 233 179 q 357 115 301 115 l 463 115 l 463 208 l 117 524 "},"t":{"ha":690,"x_min":117,"x_max":574,"o":"m 228 1042 l 458 1042 l 458 810 l 574 810 l 574 694 l 458 694 l 458 117 l 574 117 l 574 0 l 356 0 q 307 10 331 0 q 266 39 283 21 q 238 80 249 57 q 228 128 228 103 l 228 694 l 117 694 l 117 810 l 228 810 l 228 1042 "},"u":{"ha":926,"x_min":117,"x_max":810,"o":"m 356 0 q 262 18 306 0 q 185 68 218 36 q 135 143 153 100 q 117 235 117 186 l 117 810 l 347 810 l 347 115 l 579 115 l 579 810 l 810 810 l 810 0 l 356 0 "},"v":{"ha":926,"x_min":117,"x_max":810,"o":"m 347 810 l 347 115 l 450 115 l 579 246 l 579 810 l 810 810 l 810 300 l 514 0 l 117 0 l 117 810 l 347 810 "},"w":{"ha":1389,"x_min":117,"x_max":1272,"o":"m 579 810 l 810 810 l 810 117 l 921 117 l 1042 235 l 1042 810 l 1272 810 l 1272 306 l 968 0 l 117 0 l 117 810 l 347 810 l 347 117 l 579 117 l 579 810 "},"x":{"ha":926,"x_min":117,"x_max":810,"o":"m 117 810 l 347 810 l 347 464 l 579 464 l 579 810 l 810 810 l 810 625 q 790 522 810 564 q 748 453 771 479 q 706 417 725 428 q 686 406 686 406 q 706 394 686 406 q 748 356 725 383 q 790 278 771 328 q 810 151 810 228 l 810 0 l 579 0 l 579 347 l 347 347 l 347 0 l 117 0 l 117 151 q 135 278 117 228 q 176 356 154 328 q 217 394 199 383 q 236 406 236 406 q 217 417 236 406 q 176 453 199 428 q 135 522 154 479 q 117 625 117 564 l 117 810 "},"y":{"ha":926,"x_min":117,"x_max":810,"o":"m 810 810 l 810 -39 q 789 -126 810 -83 q 734 -203 768 -169 q 657 -257 700 -236 q 569 -278 614 -278 l 356 -278 q 268 -258 311 -278 q 192 -207 225 -239 q 138 -133 158 -175 q 117 -47 117 -92 l 229 -47 q 240 -92 229 -71 q 269 -128 251 -112 q 311 -152 288 -143 q 358 -161 335 -161 l 579 -161 l 579 50 l 356 50 q 263 69 306 50 q 187 121 219 89 q 135 195 154 153 q 117 283 117 238 l 117 810 l 347 810 l 347 164 l 579 164 l 579 810 l 810 810 "},"z":{"ha":938,"x_min":117,"x_max":821,"o":"m 821 810 l 821 628 l 347 161 l 347 115 l 821 115 l 821 0 l 117 0 l 117 197 l 590 667 l 590 696 l 117 696 l 117 810 l 821 810 "},"{":{"ha":579,"x_min":117,"x_max":463,"o":"m 232 333 l 117 450 l 232 565 l 232 874 q 288 1047 232 983 q 463 1111 344 1111 l 463 994 q 373 960 399 994 q 347 874 347 926 l 347 535 l 260 449 l 347 361 l 347 18 q 373 -67 347 -35 q 463 -99 399 -99 l 463 -214 q 232 18 232 -214 l 232 333 "},"|":{"ha":579,"x_min":232,"x_max":347,"o":"m 347 -115 l 232 -115 l 232 1118 l 347 1118 l 347 -115 "},"}":{"ha":579,"x_min":117,"x_max":463,"o":"m 347 561 l 463 444 l 347 331 l 347 22 q 291 -153 347 -89 q 117 -217 235 -217 l 117 -99 q 206 -65 181 -99 q 232 22 232 -32 l 232 361 l 319 449 l 232 535 l 232 876 q 206 963 232 931 q 117 994 181 994 l 117 1108 q 347 876 347 1108 l 347 561 "},"~":{"ha":928,"x_min":117,"x_max":813,"o":"m 357 810 q 426 792 397 810 q 478 753 454 775 q 526 715 503 732 q 581 697 550 697 q 667 727 639 697 q 696 810 696 757 l 813 810 q 797 719 813 761 q 751 647 781 678 q 678 599 721 617 q 583 582 636 582 q 513 599 540 582 q 463 638 486 617 q 415 677 440 660 q 350 694 390 694 q 268 665 304 694 q 232 582 232 636 l 117 582 q 134 674 117 632 q 183 747 151 717 q 259 793 215 776 q 357 810 303 810 "},"‚":{"ha":463,"x_min":117,"x_max":347,"o":"m 347 35 l 229 -81 l 138 -81 l 138 -17 l 229 72 l 229 154 l 117 154 l 117 386 l 347 386 l 347 35 "},"ƒ":{"ha":694,"x_min":117,"x_max":579,"o":"m 464 -100 q 428 -192 464 -154 q 332 -229 392 -229 l 117 -229 l 117 -111 l 232 -111 l 232 579 l 117 579 l 117 694 l 232 694 l 232 915 q 268 1006 232 969 q 364 1042 304 1042 l 575 1042 l 575 926 l 464 926 l 464 694 l 579 694 l 579 579 l 464 579 l 464 -100 "},"„":{"ha":810,"x_min":117,"x_max":694,"o":"m 347 35 l 229 -81 l 138 -81 l 138 -17 l 229 72 l 229 154 l 117 154 l 117 386 l 347 386 l 347 35 m 694 35 l 578 -81 l 485 -81 l 485 -17 l 578 72 l 578 154 l 463 154 l 463 386 l 694 386 l 694 35 "},"…":{"ha":1621,"x_min":232,"x_max":1389,"o":"m 463 0 l 232 0 l 232 232 l 463 232 l 463 0 m 926 0 l 694 0 l 694 232 l 926 232 l 926 0 m 1389 0 l 1158 0 l 1158 232 l 1389 232 l 1389 0 "},"†":{"ha":579,"x_min":117,"x_max":463,"o":"m 232 272 l 232 810 l 117 810 l 117 926 l 232 926 l 232 1042 l 347 1042 l 347 926 l 463 926 l 463 810 l 347 810 l 347 272 l 232 272 "},"‡":{"ha":579,"x_min":117,"x_max":463,"o":"m 347 463 l 463 463 l 463 347 l 347 347 l 347 232 l 232 232 l 232 347 l 117 347 l 117 463 l 232 463 l 232 810 l 117 810 l 117 926 l 232 926 l 232 1042 l 347 1042 l 347 926 l 463 926 l 463 810 l 347 810 l 347 463 "},"ˆ":{"ha":733,"x_min":96,"x_max":633,"o":"m 364 1192 l 633 925 l 486 925 l 364 1049 l 242 925 l 96 925 l 364 1192 "},"‰":{"ha":1621,"x_min":117,"x_max":1547,"o":"m 214 840 q 222 799 214 818 q 245 765 231 779 q 280 742 260 750 q 322 733 300 733 q 365 742 344 733 q 399 766 385 751 q 422 800 414 781 q 431 840 431 819 q 399 917 431 885 q 322 950 367 950 q 246 918 278 950 q 214 840 214 886 m 528 840 q 512 761 528 799 q 468 695 496 724 q 403 651 440 667 q 322 635 365 635 q 242 651 279 635 q 176 695 204 667 q 133 761 149 724 q 117 840 117 799 q 133 921 117 883 q 177 986 149 958 q 243 1031 206 1014 q 322 1047 281 1047 l 894 1047 l 388 0 l 250 0 l 711 943 l 501 943 q 522 894 515 915 q 528 840 528 872 m 846 414 q 926 397 889 414 q 992 353 964 381 q 1037 288 1021 325 q 1053 207 1053 250 q 1037 126 1053 164 q 992 60 1021 89 q 926 16 964 32 q 846 0 889 0 q 765 16 803 0 q 699 60 728 32 q 655 126 671 89 q 639 207 639 164 q 655 288 639 250 q 699 353 671 325 q 765 397 728 381 q 846 414 803 414 m 735 207 q 767 130 735 163 q 846 97 800 97 q 888 106 868 97 q 924 130 908 115 q 949 165 940 144 q 958 207 958 185 q 925 287 958 254 q 846 319 892 319 q 767 287 799 319 q 735 207 735 254 m 1339 414 q 1420 397 1382 414 q 1486 353 1458 381 q 1531 288 1514 325 q 1547 207 1547 250 q 1531 126 1547 164 q 1486 60 1514 89 q 1420 16 1458 32 q 1339 0 1382 0 q 1260 16 1297 0 q 1194 60 1222 32 q 1149 126 1165 89 q 1133 207 1133 164 q 1149 288 1133 250 q 1194 353 1165 325 q 1260 397 1222 381 q 1339 414 1297 414 m 1228 207 q 1237 165 1228 185 q 1261 130 1246 144 q 1297 106 1276 115 q 1339 97 1317 97 q 1382 106 1361 97 q 1418 130 1403 115 q 1442 165 1433 144 q 1451 207 1451 185 q 1419 287 1451 254 q 1339 319 1386 319 q 1260 287 1293 319 q 1228 207 1228 254 "},"Š":{"ha":807,"x_min":117,"x_max":693,"o":"m 117 724 l 117 807 q 135 899 117 857 q 187 974 154 942 q 263 1024 219 1006 q 357 1042 307 1042 l 456 1042 q 547 1023 504 1042 q 623 973 590 1004 q 674 899 656 942 q 693 810 693 857 l 579 810 q 542 897 579 865 q 439 928 506 928 l 347 928 l 347 764 q 373 714 347 743 q 437 649 399 685 q 519 574 475 614 q 602 491 564 533 q 666 405 640 449 q 692 319 692 361 l 692 235 q 674 145 692 188 q 626 70 657 103 q 551 19 594 38 q 454 0 507 0 l 357 0 q 263 19 307 0 q 187 69 219 38 q 135 144 154 101 q 117 235 117 186 l 233 235 q 267 149 233 182 q 357 115 301 115 l 463 115 l 463 285 q 437 342 463 310 q 373 411 411 375 q 290 487 335 447 q 206 567 244 526 q 142 647 168 607 q 117 724 117 686 m 419 1074 l 207 1288 l 326 1288 l 425 1189 l 535 1301 l 649 1301 l 419 1074 "},"‹":{"ha":776,"x_min":68,"x_max":686,"o":"m 68 436 l 472 840 l 672 840 l 263 436 l 686 11 l 494 11 l 68 436 "},"Œ":{"ha":1272,"x_min":117,"x_max":1158,"o":"m 579 115 l 579 926 l 346 926 l 346 115 l 579 115 m 353 0 q 261 19 304 0 q 186 72 218 39 q 135 149 154 106 q 117 239 117 192 l 117 804 q 135 890 117 847 q 185 967 153 933 q 260 1021 217 1000 q 353 1042 303 1042 l 1158 1042 l 1158 926 l 810 926 l 810 583 l 1042 583 l 1042 464 l 810 464 l 810 115 l 1158 115 l 1158 0 l 353 0 "},"‘":{"ha":463,"x_min":117,"x_max":347,"o":"m 117 969 l 233 1083 l 326 1083 l 326 1019 l 233 931 l 233 850 l 347 850 l 347 617 l 117 617 l 117 969 "},"’":{"ha":463,"x_min":117,"x_max":353,"o":"m 353 739 l 233 622 l 138 622 l 138 686 l 233 778 l 233 863 l 117 863 l 117 1099 l 353 1099 l 353 739 "},"“":{"ha":810,"x_min":117,"x_max":694,"o":"m 463 969 l 581 1083 l 672 1083 l 672 1019 l 581 931 l 581 850 l 694 850 l 694 617 l 463 617 l 463 969 m 117 969 l 233 1083 l 326 1083 l 326 1019 l 233 931 l 233 850 l 347 850 l 347 617 l 117 617 l 117 969 "},"”":{"ha":810,"x_min":117,"x_max":701,"o":"m 353 739 l 233 622 l 138 622 l 138 686 l 233 778 l 233 863 l 117 863 l 117 1099 l 353 1099 l 353 739 m 701 739 l 581 622 l 485 622 l 485 686 l 581 778 l 581 863 l 463 863 l 463 1099 l 701 1099 l 701 739 "},"•":{"ha":810,"x_min":100,"x_max":714,"o":"m 407 844 q 526 820 469 844 q 624 754 582 796 q 690 657 665 713 q 714 539 714 601 q 690 421 714 476 q 624 324 665 365 q 526 258 582 282 q 407 233 469 233 q 288 258 344 233 q 190 324 232 282 q 124 421 149 365 q 100 539 100 476 q 124 657 100 601 q 190 754 149 713 q 288 820 232 796 q 407 844 344 844 "},"–":{"ha":694,"x_min":117,"x_max":579,"o":"m 579 579 l 579 463 l 117 463 l 117 579 l 579 579 "},"—":{"ha":1158,"x_min":117,"x_max":1042,"o":"m 1042 579 l 1042 463 l 117 463 l 117 579 l 1042 579 "},"˜":{"ha":733,"x_min":81,"x_max":664,"o":"m 271 1078 q 326 1070 300 1078 q 374 1050 351 1063 q 426 1024 399 1036 q 476 1013 453 1013 q 514 1027 496 1013 q 550 1078 532 1042 l 664 1078 q 592 946 647 990 q 464 901 536 901 q 358 929 406 901 q 267 960 308 960 q 228 947 247 960 q 193 901 210 933 l 81 901 q 106 973 86 940 q 153 1029 126 1006 q 212 1065 181 1053 q 271 1078 243 1078 "},"™":{"ha":1364,"x_min":125,"x_max":1189,"o":"m 240 594 l 240 967 l 125 967 l 125 1081 l 471 1081 l 471 967 l 356 967 l 356 594 l 240 594 m 1074 1081 l 1189 1081 l 1189 594 l 1074 594 l 1074 903 l 894 717 l 717 900 l 717 594 l 604 594 l 604 1081 l 717 1081 l 894 882 l 1074 1081 "},"š":{"ha":807,"x_min":117,"x_max":704,"o":"m 117 524 l 117 604 q 135 690 117 651 q 187 755 154 728 q 263 796 219 782 q 357 810 307 810 l 454 810 q 546 791 503 810 q 622 741 589 772 q 673 668 654 710 q 692 579 692 626 l 578 579 q 546 663 578 632 q 461 694 514 694 l 347 694 l 347 617 l 692 322 l 692 235 q 674 145 692 188 q 626 70 657 103 q 551 19 594 38 q 454 0 507 0 l 357 0 q 263 18 307 0 q 187 68 219 36 q 135 142 154 100 q 117 232 117 183 l 233 232 q 267 147 233 179 q 357 115 301 115 l 463 115 l 463 208 l 117 524 m 418 921 l 151 1189 l 301 1189 l 425 1065 l 561 1206 l 704 1206 l 418 921 "},"›":{"ha":776,"x_min":115,"x_max":733,"o":"m 733 419 l 332 17 l 135 17 l 540 419 l 115 846 l 307 846 l 733 419 "},"œ":{"ha":1389,"x_min":117,"x_max":1272,"o":"m 1042 463 l 1042 694 l 810 694 l 810 463 l 1042 463 m 579 117 l 579 694 l 347 694 l 347 117 l 579 117 m 701 769 q 745 797 715 781 q 819 813 775 813 l 1036 813 q 1126 792 1083 813 q 1201 737 1168 771 q 1253 660 1233 703 q 1272 572 1272 617 l 1272 347 l 810 347 l 810 117 l 1031 117 q 1083 128 1060 117 q 1124 158 1107 139 q 1151 200 1142 176 q 1160 249 1160 224 l 1272 249 q 1253 157 1272 201 q 1203 78 1235 113 q 1128 22 1171 43 q 1036 0 1085 0 l 819 0 q 749 15 779 0 q 704 40 718 31 q 658 16 690 32 q 575 0 625 0 l 353 0 q 256 18 299 0 q 181 67 213 36 q 133 142 150 99 q 117 235 117 185 l 117 572 q 136 660 117 617 q 188 736 156 703 q 263 790 219 769 q 353 810 306 810 l 575 810 q 655 795 622 810 q 701 769 688 781 "},"Ÿ":{"ha":926,"x_min":117,"x_max":810,"o":"m 347 467 l 117 696 l 117 1042 l 347 1042 l 347 635 l 463 519 l 579 635 l 579 1042 l 810 1042 l 810 696 l 579 467 l 579 0 l 347 0 l 347 467 m 244 1215 l 347 1215 l 347 1113 l 244 1113 l 244 1215 m 568 1215 l 671 1215 l 671 1113 l 568 1113 l 568 1215 "},"¡":{"ha":694,"x_min":242,"x_max":472,"o":"m 242 833 l 472 833 l 472 601 l 242 601 l 242 833 m 242 486 l 472 486 l 472 -208 l 242 -208 l 242 486 "},"¢":{"ha":810,"x_min":117,"x_max":694,"o":"m 347 717 q 288 706 310 717 q 253 673 265 694 q 236 621 240 651 q 232 553 232 590 l 232 388 q 235 317 232 347 q 251 266 239 286 q 287 236 264 246 q 347 226 310 226 l 347 717 m 463 226 q 530 240 506 226 q 565 276 554 253 q 577 327 575 299 q 579 388 579 356 l 694 388 q 684 281 694 332 q 648 190 674 229 q 577 126 622 150 q 463 103 532 103 l 463 -8 l 347 -8 l 347 103 q 175 178 233 103 q 117 382 117 253 l 117 561 q 131 673 117 622 q 173 760 144 724 q 244 818 201 797 q 347 839 288 839 l 347 956 l 463 956 l 463 839 q 571 815 526 839 q 643 750 615 790 q 683 658 671 710 q 694 553 694 607 l 579 553 q 576 610 579 581 q 560 663 572 639 q 526 701 549 686 q 463 717 503 717 l 463 226 "},"£":{"ha":1042,"x_min":117,"x_max":921,"o":"m 117 0 l 117 117 l 232 117 l 232 463 l 117 463 l 117 579 l 232 579 l 232 949 q 268 1040 232 1001 q 364 1078 304 1078 l 681 1078 q 773 1040 736 1078 q 810 951 810 1003 l 810 844 l 694 844 q 692 890 694 869 q 681 926 689 911 q 655 950 672 942 q 608 958 638 958 l 463 958 l 463 579 l 579 579 l 579 463 l 463 463 l 463 117 l 697 117 q 767 126 743 117 q 800 151 790 135 q 810 192 810 168 q 810 246 810 215 l 921 246 l 921 131 q 911 81 921 104 q 885 39 901 57 q 845 10 868 21 q 796 0 822 0 l 117 0 "},"¤":{"ha":810,"x_min":121,"x_max":706,"o":"m 244 511 q 258 447 244 476 q 293 394 271 417 q 345 360 315 372 q 408 347 375 347 q 473 360 443 347 q 525 394 503 372 q 560 447 547 417 q 574 511 574 476 q 560 576 574 546 q 525 628 547 606 q 473 663 503 650 q 408 676 443 676 q 345 663 375 676 q 293 628 315 650 q 258 576 271 606 q 244 511 244 546 m 408 772 q 497 757 457 772 q 561 722 538 742 l 640 801 l 706 736 l 625 656 q 658 590 646 625 q 671 511 671 556 q 658 431 671 465 q 624 364 644 396 l 706 283 l 640 217 l 561 297 q 492 265 528 278 q 408 251 456 251 q 328 264 364 251 q 264 294 292 276 l 185 217 l 121 282 l 197 358 q 163 426 178 389 q 149 511 149 464 q 163 595 149 557 q 196 661 176 633 l 122 736 l 186 801 l 263 726 q 325 758 286 744 q 408 772 364 772 "},"¥":{"ha":1158,"x_min":110,"x_max":1083,"o":"m 461 463 l 117 463 l 117 579 l 461 579 l 461 694 l 117 694 l 117 810 l 340 810 l 110 1042 l 369 1042 l 593 821 l 819 1042 l 1083 1042 l 857 810 l 1042 810 l 1042 694 l 692 694 l 692 579 l 1042 579 l 1042 463 l 692 463 l 692 0 l 461 0 l 461 463 "},"¦":{"ha":579,"x_min":232,"x_max":347,"o":"m 347 635 l 232 635 l 232 1000 l 347 1000 l 347 635 m 347 0 l 232 0 l 232 365 l 347 365 l 347 0 "},"§":{"ha":810,"x_min":117,"x_max":694,"o":"m 694 -6 l 694 -154 q 685 -203 694 -181 q 658 -244 675 -226 q 617 -272 640 -261 q 567 -282 593 -282 l 257 -282 q 203 -272 228 -282 q 158 -244 178 -261 q 128 -203 139 -226 q 117 -154 117 -181 l 117 -50 l 232 -50 q 234 -96 232 -75 q 245 -133 236 -117 q 272 -157 254 -149 q 318 -165 289 -165 l 501 -165 q 547 -157 531 -165 q 570 -133 563 -149 q 578 -96 578 -117 q 579 -50 579 -75 l 579 7 l 118 390 l 118 622 q 135 680 118 657 q 173 716 153 703 q 210 734 193 729 q 228 739 228 739 q 210 747 228 739 q 172 770 193 754 q 134 811 151 786 q 117 871 117 836 l 117 1024 q 153 1112 117 1075 q 246 1149 189 1149 l 567 1149 q 658 1112 621 1149 q 694 1024 694 1075 l 694 917 l 579 917 q 577 963 579 942 q 566 999 575 983 q 540 1022 557 1014 q 493 1031 522 1031 l 318 1031 q 272 1022 289 1031 q 245 999 254 1014 q 234 963 236 983 q 232 917 232 942 l 232 878 l 694 492 l 694 257 q 677 204 694 225 q 640 171 660 183 q 602 153 619 158 q 585 147 585 147 q 602 134 585 147 q 640 99 619 121 q 677 50 660 78 q 694 -6 694 22 m 579 432 l 301 660 q 251 635 267 660 q 232 576 236 610 q 230 506 228 542 q 232 451 232 471 l 493 239 q 549 257 531 239 q 574 303 567 275 q 580 366 581 332 q 579 432 579 400 "},"¨":{"ha":717,"x_min":121,"x_max":594,"o":"m 121 1078 l 235 1078 l 235 963 l 121 963 l 121 1078 m 481 1078 l 594 1078 l 594 963 l 481 963 l 481 1078 "},"©":{"ha":1168,"x_min":47,"x_max":1124,"o":"m 585 1078 q 795 1035 697 1078 q 966 920 893 993 q 1081 749 1039 847 q 1124 539 1124 651 q 1081 328 1124 426 q 966 158 1039 231 q 795 42 893 85 q 585 0 697 0 q 376 42 474 0 q 205 158 278 85 q 90 328 132 231 q 47 539 47 426 q 90 749 47 651 q 205 920 132 847 q 376 1035 278 993 q 585 1078 474 1078 m 161 536 q 194 369 161 447 q 285 234 228 292 q 419 143 342 176 q 585 110 497 110 q 751 143 674 110 q 888 234 829 176 q 979 369 946 292 q 1013 536 1013 447 q 979 703 1013 625 q 888 838 946 781 q 751 929 829 896 q 585 963 674 963 q 419 929 497 963 q 285 838 342 896 q 194 703 228 781 q 161 536 161 625 m 479 414 q 476 401 478 413 q 483 376 474 389 q 524 363 492 363 l 672 363 q 712 376 703 363 q 719 401 721 389 q 717 414 718 413 l 717 481 l 828 481 l 828 353 q 793 274 828 300 q 714 249 758 249 l 481 249 q 399 274 435 249 q 364 353 364 300 l 364 715 q 397 801 363 764 q 483 838 431 838 l 710 838 q 758 827 736 838 q 796 800 781 817 q 820 761 811 783 q 828 715 829 739 l 828 604 l 717 604 l 717 671 q 719 684 718 672 q 712 709 721 696 q 672 722 703 722 l 524 722 q 483 709 492 722 q 476 684 474 696 q 479 671 478 672 l 479 414 "},"ª":{"ha":828,"x_min":115,"x_max":707,"o":"m 321 981 q 281 976 300 981 q 246 960 261 971 q 221 935 231 950 q 211 900 211 921 l 115 900 q 133 972 115 939 q 178 1030 150 1006 q 244 1067 207 1054 q 319 1081 281 1081 l 506 1081 q 584 1063 547 1081 q 648 1015 621 1044 q 691 949 675 986 q 707 875 707 913 l 707 361 l 319 361 q 241 378 278 361 q 178 424 204 396 q 136 489 151 453 q 121 563 121 525 l 121 672 q 136 746 121 710 q 178 811 151 782 q 242 858 206 840 q 319 875 278 875 l 511 875 l 511 981 l 321 981 m 511 778 l 315 778 l 315 461 l 511 461 l 511 778 m 128 124 l 128 239 l 707 239 l 707 124 l 128 124 "},"«":{"ha":1154,"x_min":68,"x_max":1047,"o":"m 68 436 l 475 840 l 669 840 l 263 436 l 686 11 l 496 11 l 68 436 m 431 436 l 839 840 l 1026 840 l 624 436 l 1047 11 l 857 11 l 431 436 "},"¬":{"ha":810,"x_min":117,"x_max":694,"o":"m 117 463 l 117 579 l 694 579 l 694 232 l 579 232 l 579 463 l 117 463 "},"®":{"ha":1168,"x_min":47,"x_max":1124,"o":"m 585 1078 q 795 1035 697 1078 q 966 920 893 993 q 1081 749 1039 847 q 1124 539 1124 651 q 1081 328 1124 426 q 966 158 1039 231 q 795 42 893 85 q 585 0 697 0 q 376 42 474 0 q 205 158 278 85 q 90 328 132 231 q 47 539 47 426 q 90 749 47 651 q 205 920 132 847 q 376 1035 278 993 q 585 1078 474 1078 m 161 536 q 194 369 161 447 q 285 234 228 292 q 419 143 342 176 q 585 110 497 110 q 751 143 674 110 q 888 234 829 176 q 979 369 946 292 q 1013 536 1013 447 q 979 703 1013 625 q 888 838 946 781 q 751 929 829 896 q 585 963 674 963 q 419 929 497 963 q 285 838 342 896 q 194 703 228 781 q 161 536 161 625 m 371 249 l 371 838 l 710 838 q 758 827 736 838 q 796 800 781 817 q 820 761 811 783 q 828 715 829 739 l 828 651 q 793 574 828 600 q 714 547 758 547 q 792 519 758 547 q 825 442 825 490 l 825 249 l 722 249 l 722 431 q 705 472 722 458 q 661 485 688 485 l 474 485 l 474 249 l 371 249 m 672 604 q 709 623 697 604 q 721 663 721 642 q 708 703 721 685 q 672 722 696 722 l 474 722 l 474 604 l 672 604 "},"¯":{"ha":733,"x_min":129,"x_max":610,"o":"m 610 1067 l 610 950 l 129 950 l 129 1067 l 610 1067 "},"°":{"ha":694,"x_min":111,"x_max":585,"o":"m 347 1078 q 440 1059 397 1078 q 515 1008 483 1040 q 566 933 547 976 q 585 840 585 890 q 566 749 585 792 q 515 674 547 706 q 440 623 483 642 q 347 604 397 604 q 256 623 299 604 q 181 674 213 642 q 130 749 149 706 q 111 840 111 792 q 130 932 111 889 q 181 1008 149 975 q 256 1059 213 1040 q 347 1078 299 1078 m 226 840 q 261 753 226 789 q 347 717 296 717 q 434 753 399 717 q 469 840 469 789 q 460 888 469 865 q 433 926 450 910 q 394 953 417 943 q 347 963 372 963 q 301 953 322 963 q 263 926 279 943 q 236 888 246 910 q 226 840 226 865 "},"±":{"ha":810,"x_min":117,"x_max":694,"o":"m 694 117 l 694 0 l 117 0 l 117 117 l 694 117 m 463 232 l 347 232 l 347 463 l 117 463 l 117 579 l 347 579 l 347 810 l 463 810 l 463 579 l 694 579 l 694 463 l 463 463 l 463 232 "},"²":{"ha":563,"x_min":110,"x_max":456,"o":"m 340 993 l 229 993 q 185 976 206 993 q 165 936 165 960 l 110 936 q 119 978 110 958 q 146 1015 129 999 q 184 1040 163 1031 q 229 1050 206 1050 l 336 1050 q 380 1040 358 1050 q 418 1014 401 1031 q 445 976 435 997 q 456 933 456 956 l 456 853 l 226 618 l 226 589 l 456 589 l 456 529 l 110 529 l 110 610 l 340 849 l 340 993 "},"³":{"ha":576,"x_min":100,"x_max":449,"o":"m 313 1047 l 103 1047 l 103 1104 l 449 1104 l 449 1047 l 297 931 l 331 931 q 374 922 353 931 q 413 897 396 913 q 439 863 429 882 q 449 821 449 843 l 449 701 q 439 658 449 679 q 413 619 429 636 q 374 593 396 603 q 331 583 353 583 l 219 583 q 174 593 196 583 q 136 619 153 603 q 110 658 119 636 q 100 701 100 679 l 157 701 q 174 658 157 674 q 219 642 192 642 l 333 642 l 333 874 l 167 874 l 167 929 l 313 1047 "},"´":{"ha":656,"x_min":185,"x_max":496,"o":"m 496 1111 l 300 879 l 185 879 l 381 1111 l 496 1111 "},"µ":{"ha":1158,"x_min":117,"x_max":1042,"o":"m 351 0 q 297 -168 351 -112 q 117 -224 242 -224 l 117 -104 q 135 -103 117 -104 q 174 -94 153 -103 q 214 -62 196 -85 q 232 1 232 -40 l 232 810 l 463 810 l 463 117 l 694 117 l 694 810 l 926 810 l 926 221 q 953 149 926 176 q 1042 121 979 121 l 1042 0 q 944 14 979 0 q 893 45 910 28 q 873 76 876 63 q 869 90 869 90 q 867 76 869 90 q 853 45 864 63 q 821 14 842 28 q 765 0 800 0 l 351 0 "},"¶":{"ha":926,"x_min":117,"x_max":810,"o":"m 463 926 l 358 926 q 272 894 300 926 q 244 813 244 861 l 244 706 q 272 613 244 647 q 358 579 300 579 l 463 579 l 463 926 m 463 463 l 353 463 q 258 480 301 463 q 183 528 214 497 q 134 604 151 560 q 117 701 117 649 l 117 807 q 136 899 117 857 q 188 974 156 942 q 263 1024 221 1006 q 353 1042 306 1042 l 810 1042 l 810 0 l 694 0 l 694 926 l 579 926 l 579 0 l 463 0 l 463 463 "},"·":{"ha":463,"x_min":117,"x_max":347,"o":"m 117 694 l 347 694 l 347 463 l 117 463 l 117 694 "},"∙":{"ha":463,"x_min":117,"x_max":347,"o":"m 117 694 l 117 463 l 347 463 l 347 694 l 117 694 "},"¸":{"ha":463,"x_min":110,"x_max":350,"o":"m 350 0 l 350 -85 q 338 -177 350 -143 q 297 -230 325 -211 q 223 -254 269 -249 q 110 -260 176 -260 l 110 -164 q 188 -150 158 -164 q 217 -86 217 -136 l 217 0 l 350 0 "},"¹":{"ha":451,"x_min":133,"x_max":307,"o":"m 307 582 l 190 582 l 190 1046 l 133 988 l 133 1046 l 190 1103 l 307 1103 l 307 582 "},"º":{"ha":828,"x_min":117,"x_max":721,"o":"m 128 124 l 128 239 l 707 239 l 707 124 l 128 124 m 318 372 q 241 389 278 372 q 176 433 204 406 q 133 497 149 461 q 117 572 117 533 l 117 888 q 133 961 117 925 q 176 1025 149 997 q 241 1070 204 1053 q 318 1088 278 1088 l 518 1088 q 597 1070 560 1088 q 661 1025 633 1053 q 705 961 689 997 q 721 888 721 925 l 721 572 q 705 497 721 533 q 661 433 689 461 q 597 389 633 406 q 518 372 560 372 l 318 372 m 526 471 l 526 992 l 314 992 l 314 471 l 526 471 "},"»":{"ha":1154,"x_min":97,"x_max":1068,"o":"m 1068 419 l 647 17 l 463 17 l 876 419 l 458 846 l 643 846 l 1068 419 m 707 419 l 283 17 l 100 17 l 514 419 l 97 846 l 283 846 l 707 419 "},"¼":{"ha":1111,"x_min":54,"x_max":1036,"o":"m 54 -6 l 921 1113 l 1036 1113 l 169 -6 l 54 -6 m 356 582 l 239 582 l 239 1046 l 182 988 l 182 1046 l 239 1103 l 356 1103 l 356 582 m 828 521 l 943 521 l 943 231 l 1001 231 l 1001 174 l 943 174 l 943 0 l 828 0 l 828 174 l 596 174 l 596 290 l 828 521 m 654 256 l 654 231 l 828 231 l 828 429 l 654 256 "},"½":{"ha":1111,"x_min":54,"x_max":1036,"o":"m 54 -6 l 921 1113 l 1036 1113 l 169 -6 l 54 -6 m 874 464 l 763 464 q 719 447 739 464 q 699 407 699 431 l 643 407 q 653 449 643 429 q 679 485 663 469 q 717 511 696 501 q 763 521 739 521 l 869 521 q 913 511 892 521 q 951 485 935 501 q 978 447 968 468 q 989 404 989 426 l 989 324 l 760 89 l 760 60 l 989 60 l 989 0 l 643 0 l 643 81 l 874 319 l 874 464 m 356 582 l 239 582 l 239 1046 l 182 988 l 182 1046 l 239 1103 l 356 1103 l 356 582 "},"¾":{"ha":1111,"x_min":54,"x_max":1036,"o":"m 54 -6 l 921 1113 l 1036 1113 l 169 -6 l 54 -6 m 828 521 l 943 521 l 943 231 l 1001 231 l 1001 174 l 943 174 l 943 0 l 828 0 l 828 174 l 596 174 l 596 290 l 828 521 m 654 256 l 654 231 l 828 231 l 828 429 l 654 256 m 313 1047 l 103 1047 l 103 1104 l 449 1104 l 449 1047 l 297 931 l 331 931 q 374 922 353 931 q 413 897 396 913 q 439 863 429 882 q 449 821 449 843 l 449 701 q 439 658 449 679 q 413 619 429 636 q 374 593 396 603 q 331 583 353 583 l 219 583 q 174 593 196 583 q 136 619 153 603 q 110 658 119 636 q 100 701 100 679 l 157 701 q 174 658 157 674 q 219 642 192 642 l 333 642 l 333 874 l 167 874 l 167 929 l 313 1047 "},"¿":{"ha":926,"x_min":131,"x_max":822,"o":"m 360 833 l 592 833 l 592 601 l 360 601 l 360 833 m 131 85 l 360 336 l 360 474 l 592 474 l 592 324 l 360 72 l 360 -94 l 583 -94 q 628 -84 606 -94 q 669 -56 651 -74 q 697 -17 686 -39 q 708 29 708 6 l 822 29 q 801 -59 822 -17 q 747 -135 781 -101 q 671 -188 714 -168 q 583 -208 628 -208 l 372 -208 q 283 -188 326 -208 q 206 -135 240 -168 q 151 -59 172 -101 q 131 29 131 -17 l 131 85 "},"À":{"ha":926,"x_min":121,"x_max":811,"o":"m 357 1042 l 571 1042 q 656 1022 613 1042 q 733 970 699 1003 q 789 895 767 938 q 811 807 811 853 l 811 0 q 762 -1 796 0 q 690 -1 728 -1 q 622 -1 654 -1 q 579 0 590 -1 l 579 463 l 351 463 l 351 0 l 121 0 l 121 807 q 142 896 121 853 q 198 971 164 939 q 274 1022 232 1003 q 357 1042 317 1042 m 351 581 l 579 581 l 579 928 l 351 928 l 351 581 m 425 1218 l 550 1090 l 453 1090 l 328 1218 l 425 1218 "},"Á":{"ha":926,"x_min":121,"x_max":811,"o":"m 357 1042 l 571 1042 q 656 1022 613 1042 q 733 970 699 1003 q 789 895 767 938 q 811 807 811 853 l 811 0 q 762 -1 796 0 q 690 -1 728 -1 q 622 -1 654 -1 q 579 0 590 -1 l 579 463 l 351 463 l 351 0 l 121 0 l 121 807 q 142 896 121 853 q 198 971 164 939 q 274 1022 232 1003 q 357 1042 317 1042 m 351 581 l 579 581 l 579 928 l 351 928 l 351 581 m 626 1218 l 501 1090 l 404 1090 l 529 1218 l 626 1218 "},"Â":{"ha":926,"x_min":121,"x_max":811,"o":"m 357 1042 l 571 1042 q 656 1022 613 1042 q 733 970 699 1003 q 789 895 767 938 q 811 807 811 853 l 811 0 q 762 -1 796 0 q 690 -1 728 -1 q 622 -1 654 -1 q 579 0 590 -1 l 579 463 l 351 463 l 351 0 l 121 0 l 121 807 q 142 896 121 853 q 198 971 164 939 q 274 1022 232 1003 q 357 1042 317 1042 m 351 581 l 579 581 l 579 928 l 351 928 l 351 581 m 461 1279 l 646 1096 l 551 1096 l 461 1186 l 372 1096 l 279 1096 l 461 1279 "},"Ã":{"ha":926,"x_min":121,"x_max":811,"o":"m 357 1042 l 571 1042 q 656 1022 613 1042 q 733 970 699 1003 q 789 895 767 938 q 811 807 811 853 l 811 0 q 762 -1 796 0 q 690 -1 728 -1 q 622 -1 654 -1 q 579 0 590 -1 l 579 463 l 351 463 l 351 0 l 121 0 l 121 807 q 142 896 121 853 q 198 971 164 939 q 274 1022 232 1003 q 357 1042 317 1042 m 351 581 l 579 581 l 579 928 l 351 928 l 351 581 m 390 1228 q 433 1221 414 1228 q 471 1206 451 1214 q 510 1190 492 1197 q 544 1182 529 1182 q 572 1192 560 1182 q 593 1228 585 1201 l 672 1228 q 629 1140 664 1175 q 542 1104 594 1104 q 503 1109 519 1104 q 468 1124 488 1114 q 428 1139 449 1133 q 390 1144 407 1144 q 363 1136 375 1144 q 343 1104 350 1128 l 269 1104 q 308 1192 276 1157 q 390 1228 340 1228 "},"Ä":{"ha":926,"x_min":121,"x_max":811,"o":"m 357 1042 l 571 1042 q 656 1022 613 1042 q 733 970 699 1003 q 789 895 767 938 q 811 807 811 853 l 811 0 q 762 -1 796 0 q 690 -1 728 -1 q 622 -1 654 -1 q 579 0 590 -1 l 579 463 l 351 463 l 351 0 l 121 0 l 121 807 q 142 896 121 853 q 198 971 164 939 q 274 1022 232 1003 q 357 1042 317 1042 m 351 581 l 579 581 l 579 928 l 351 928 l 351 581 m 244 1215 l 347 1215 l 347 1113 l 244 1113 l 244 1215 m 568 1215 l 671 1215 l 671 1113 l 568 1113 l 568 1215 "},"Å":{"ha":926,"x_min":121,"x_max":811,"o":"m 357 1042 l 571 1042 q 656 1022 613 1042 q 733 970 699 1003 q 789 895 767 938 q 811 807 811 853 l 811 0 q 762 -1 796 0 q 690 -1 728 -1 q 622 -1 654 -1 q 579 0 590 -1 l 579 463 l 351 463 l 351 0 l 121 0 l 121 807 q 142 896 121 853 q 198 971 164 939 q 274 1022 232 1003 q 357 1042 317 1042 m 351 581 l 579 581 l 579 928 l 351 928 l 351 581 m 471 1372 q 523 1362 499 1372 q 566 1333 547 1351 q 596 1290 585 1314 q 607 1238 607 1265 q 567 1141 607 1181 q 471 1101 528 1101 q 419 1113 443 1101 q 376 1142 394 1124 q 347 1185 357 1161 q 336 1238 336 1210 q 347 1290 336 1265 q 376 1333 357 1314 q 419 1362 394 1351 q 471 1372 443 1372 m 400 1238 q 421 1187 400 1208 q 471 1165 442 1165 q 521 1187 500 1165 q 542 1238 542 1208 q 521 1287 542 1267 q 471 1307 500 1307 q 421 1287 442 1307 q 400 1238 400 1267 "},"Æ":{"ha":1272,"x_min":117,"x_max":1158,"o":"m 347 581 l 579 581 l 579 928 l 347 928 l 347 581 m 579 463 l 347 463 l 347 0 l 117 0 l 117 810 q 138 897 117 856 q 192 972 158 939 q 267 1023 225 1004 q 350 1042 308 1042 l 1158 1042 l 1158 926 l 810 926 l 810 581 l 1042 581 l 1042 463 l 810 463 l 810 117 l 1158 117 l 1158 0 l 579 0 l 579 463 "},"Ç":{"ha":926,"x_min":117,"x_max":813,"o":"m 536 0 l 536 -85 q 524 -177 536 -143 q 483 -230 511 -211 q 408 -254 454 -249 q 294 -260 361 -260 l 294 -164 q 373 -150 343 -164 q 403 -86 403 -136 l 403 0 l 356 0 q 258 17 303 0 q 183 65 214 33 q 134 139 151 96 q 117 235 117 182 l 117 807 q 134 898 117 856 q 183 972 151 940 q 258 1023 214 1004 q 356 1042 303 1042 l 578 1042 q 669 1025 626 1042 q 744 978 713 1008 q 794 903 776 947 q 813 807 813 860 l 697 807 q 664 895 697 864 q 578 926 631 926 l 347 926 l 347 115 l 578 115 q 623 124 601 115 q 661 149 644 133 q 688 186 678 164 q 697 235 697 208 l 813 235 q 794 140 813 183 q 744 66 776 97 q 669 17 713 35 q 578 0 626 0 l 536 0 "},"È":{"ha":810,"x_min":117,"x_max":694,"o":"m 579 463 l 347 463 l 347 117 l 694 117 l 694 0 l 117 0 l 117 1042 l 694 1042 l 694 926 l 347 926 l 347 581 l 579 581 l 579 463 m 425 1218 l 550 1090 l 453 1090 l 328 1218 l 425 1218 "},"É":{"ha":810,"x_min":117,"x_max":694,"o":"m 579 463 l 347 463 l 347 117 l 694 117 l 694 0 l 117 0 l 117 1042 l 694 1042 l 694 926 l 347 926 l 347 581 l 579 581 l 579 463 m 550 1218 l 425 1090 l 328 1090 l 453 1218 l 550 1218 "},"Ê":{"ha":810,"x_min":117,"x_max":694,"o":"m 579 463 l 347 463 l 347 117 l 694 117 l 694 0 l 117 0 l 117 1042 l 694 1042 l 694 926 l 347 926 l 347 581 l 579 581 l 579 463 m 413 1279 l 597 1096 l 503 1096 l 413 1186 l 324 1096 l 231 1096 l 413 1279 "},"Ë":{"ha":810,"x_min":117,"x_max":694,"o":"m 579 463 l 347 463 l 347 117 l 694 117 l 694 0 l 117 0 l 117 1042 l 694 1042 l 694 926 l 347 926 l 347 581 l 579 581 l 579 463 m 196 1215 l 299 1215 l 299 1113 l 196 1113 l 196 1215 m 519 1215 l 622 1215 l 622 1113 l 519 1113 l 519 1215 "},"Ì":{"ha":694,"x_min":231,"x_max":463,"o":"m 463 0 l 232 0 l 232 1042 l 463 1042 l 463 0 m 328 1218 l 453 1090 l 356 1090 l 231 1218 l 328 1218 "},"Í":{"ha":694,"x_min":232,"x_max":550,"o":"m 463 0 l 232 0 l 232 1042 l 463 1042 l 463 0 m 550 1218 l 425 1090 l 328 1090 l 453 1218 l 550 1218 "},"Î":{"ha":694,"x_min":168,"x_max":535,"o":"m 463 0 l 232 0 l 232 1042 l 463 1042 l 463 0 m 350 1279 l 535 1096 l 440 1096 l 350 1186 l 261 1096 l 168 1096 l 350 1279 "},"Ï":{"ha":694,"x_min":126,"x_max":553,"o":"m 463 0 l 232 0 l 232 1042 l 463 1042 l 463 0 m 126 1215 l 229 1215 l 229 1113 l 126 1113 l 126 1215 m 450 1215 l 553 1215 l 553 1113 l 450 1113 l 450 1215 "},"Ð":{"ha":926,"x_min":47,"x_max":810,"o":"m 347 461 l 347 117 l 579 117 l 579 926 l 347 926 l 347 579 l 424 579 l 424 461 l 347 461 m 117 461 l 47 461 l 47 579 l 117 579 l 117 1042 l 574 1042 q 663 1023 619 1042 q 738 972 706 1004 q 790 896 771 939 q 810 806 810 853 l 810 236 q 790 146 810 189 q 738 71 771 103 q 663 19 706 39 q 574 0 619 0 l 117 0 l 117 461 "},"Ñ":{"ha":1042,"x_min":117,"x_max":926,"o":"m 232 608 l 232 0 l 117 0 l 117 1042 l 171 1042 l 810 439 l 810 1042 l 926 1042 l 926 0 l 871 0 l 232 608 m 432 1228 q 474 1221 456 1228 q 513 1206 493 1214 q 552 1190 533 1197 q 586 1182 571 1182 q 614 1192 601 1182 q 635 1228 626 1201 l 714 1228 q 671 1140 706 1175 q 583 1104 636 1104 q 545 1109 561 1104 q 510 1124 529 1114 q 469 1139 490 1133 q 432 1144 449 1144 q 404 1136 417 1144 q 385 1104 392 1128 l 311 1104 q 350 1192 318 1157 q 432 1228 382 1228 "},"Ò":{"ha":926,"x_min":117,"x_max":810,"o":"m 353 0 q 263 19 306 0 q 188 70 221 38 q 136 145 156 103 q 117 235 117 188 l 117 807 q 135 894 117 851 q 186 969 154 936 q 261 1022 218 1001 q 353 1042 304 1042 l 574 1042 q 665 1022 622 1042 q 740 969 708 1001 q 791 894 772 936 q 810 807 810 851 l 810 235 q 790 145 810 188 q 738 70 771 103 q 663 19 706 38 q 574 0 621 0 l 353 0 m 579 117 l 579 926 l 347 926 l 347 117 l 579 117 m 363 1218 l 488 1090 l 390 1090 l 265 1218 l 363 1218 "},"Ó":{"ha":926,"x_min":117,"x_max":810,"o":"m 353 0 q 263 19 306 0 q 188 70 221 38 q 136 145 156 103 q 117 235 117 188 l 117 807 q 135 894 117 851 q 186 969 154 936 q 261 1022 218 1001 q 353 1042 304 1042 l 574 1042 q 665 1022 622 1042 q 740 969 708 1001 q 791 894 772 936 q 810 807 810 851 l 810 235 q 790 145 810 188 q 738 70 771 103 q 663 19 706 38 q 574 0 621 0 l 353 0 m 579 117 l 579 926 l 347 926 l 347 117 l 579 117 m 633 1218 l 508 1090 l 411 1090 l 536 1218 l 633 1218 "},"Ô":{"ha":926,"x_min":117,"x_max":810,"o":"m 353 0 q 263 19 306 0 q 188 70 221 38 q 136 145 156 103 q 117 235 117 188 l 117 807 q 135 894 117 851 q 186 969 154 936 q 261 1022 218 1001 q 353 1042 304 1042 l 574 1042 q 665 1022 622 1042 q 740 969 708 1001 q 791 894 772 936 q 810 807 810 851 l 810 235 q 790 145 810 188 q 738 70 771 103 q 663 19 706 38 q 574 0 621 0 l 353 0 m 579 117 l 579 926 l 347 926 l 347 117 l 579 117 m 461 1279 l 646 1096 l 551 1096 l 461 1186 l 372 1096 l 279 1096 l 461 1279 "},"Õ":{"ha":926,"x_min":117,"x_max":810,"o":"m 353 0 q 263 19 306 0 q 188 70 221 38 q 136 145 156 103 q 117 235 117 188 l 117 807 q 135 894 117 851 q 186 969 154 936 q 261 1022 218 1001 q 353 1042 304 1042 l 574 1042 q 665 1022 622 1042 q 740 969 708 1001 q 791 894 772 936 q 810 807 810 851 l 810 235 q 790 145 810 188 q 738 70 771 103 q 663 19 706 38 q 574 0 621 0 l 353 0 m 579 117 l 579 926 l 347 926 l 347 117 l 579 117 m 397 1228 q 440 1221 421 1228 q 478 1206 458 1214 q 517 1190 499 1197 q 551 1182 536 1182 q 579 1192 567 1182 q 600 1228 592 1201 l 679 1228 q 636 1140 671 1175 q 549 1104 601 1104 q 510 1109 526 1104 q 475 1124 494 1114 q 435 1139 456 1133 q 397 1144 414 1144 q 369 1136 382 1144 q 350 1104 357 1128 l 276 1104 q 315 1192 283 1157 q 397 1228 347 1228 "},"Ö":{"ha":926,"x_min":117,"x_max":810,"o":"m 353 0 q 263 19 306 0 q 188 70 221 38 q 136 145 156 103 q 117 235 117 188 l 117 807 q 135 894 117 851 q 186 969 154 936 q 261 1022 218 1001 q 353 1042 304 1042 l 574 1042 q 665 1022 622 1042 q 740 969 708 1001 q 791 894 772 936 q 810 807 810 851 l 810 235 q 790 145 810 188 q 738 70 771 103 q 663 19 706 38 q 574 0 621 0 l 353 0 m 579 117 l 579 926 l 347 926 l 347 117 l 579 117 m 244 1215 l 347 1215 l 347 1113 l 244 1113 l 244 1215 m 568 1215 l 671 1215 l 671 1113 l 568 1113 l 568 1215 "},"×":{"ha":926,"x_min":117,"x_max":810,"o":"m 117 810 l 347 810 l 347 464 l 579 464 l 579 810 l 810 810 l 810 625 q 790 522 810 564 q 748 453 771 479 q 706 417 725 428 q 686 406 686 406 q 706 394 686 406 q 748 356 725 383 q 790 278 771 328 q 810 151 810 228 l 810 0 l 579 0 l 579 347 l 347 347 l 347 0 l 117 0 l 117 151 q 135 278 117 228 q 176 356 154 328 q 217 394 199 383 q 236 406 236 406 q 217 417 236 406 q 176 453 199 428 q 135 522 154 479 q 117 625 117 564 l 117 810 "},"Ø":{"ha":926,"x_min":-29,"x_max":931,"o":"m 350 0 q 267 17 303 0 q 206 54 231 33 q 168 92 181 75 q 156 108 156 108 l 60 0 l -29 82 l 117 244 l 117 804 q 135 890 117 847 q 184 967 153 933 q 258 1022 215 1001 q 350 1043 301 1043 l 583 1043 q 658 1031 625 1043 q 713 1005 690 1019 q 747 978 735 990 q 758 967 758 967 l 839 1057 l 931 979 l 821 857 q 822 847 821 856 q 825 824 824 838 q 826 804 826 811 l 826 232 q 807 144 826 186 q 755 69 788 101 q 678 19 722 38 q 583 0 633 0 l 350 0 m 594 783 l 594 926 l 347 926 l 347 504 l 594 783 m 347 322 l 347 117 l 594 117 l 594 603 l 347 322 "},"Ù":{"ha":926,"x_min":117,"x_max":810,"o":"m 347 1042 l 347 115 l 579 115 l 579 1042 l 810 1042 l 810 235 q 791 148 810 190 q 740 73 772 106 q 665 20 708 40 q 574 0 622 0 l 353 0 q 261 20 304 0 q 186 73 218 40 q 135 148 154 106 q 117 235 117 190 l 117 1042 l 347 1042 m 383 1218 l 508 1090 l 411 1090 l 286 1218 l 383 1218 "},"Ú":{"ha":926,"x_min":117,"x_max":810,"o":"m 347 1042 l 347 115 l 579 115 l 579 1042 l 810 1042 l 810 235 q 791 148 810 190 q 740 73 772 106 q 665 20 708 40 q 574 0 622 0 l 353 0 q 261 20 304 0 q 186 73 218 40 q 135 148 154 106 q 117 235 117 190 l 117 1042 l 347 1042 m 640 1218 l 515 1090 l 418 1090 l 543 1218 l 640 1218 "},"Û":{"ha":926,"x_min":117,"x_max":810,"o":"m 347 1042 l 347 115 l 579 115 l 579 1042 l 810 1042 l 810 235 q 791 148 810 190 q 740 73 772 106 q 665 20 708 40 q 574 0 622 0 l 353 0 q 261 20 304 0 q 186 73 218 40 q 135 148 154 106 q 117 235 117 190 l 117 1042 l 347 1042 m 461 1279 l 646 1096 l 551 1096 l 461 1186 l 372 1096 l 279 1096 l 461 1279 "},"Ü":{"ha":926,"x_min":117,"x_max":810,"o":"m 347 1042 l 347 115 l 579 115 l 579 1042 l 810 1042 l 810 235 q 791 148 810 190 q 740 73 772 106 q 665 20 708 40 q 574 0 622 0 l 353 0 q 261 20 304 0 q 186 73 218 40 q 135 148 154 106 q 117 235 117 190 l 117 1042 l 347 1042 m 244 1215 l 347 1215 l 347 1113 l 244 1113 l 244 1215 m 568 1215 l 671 1215 l 671 1113 l 568 1113 l 568 1215 "},"Ý":{"ha":926,"x_min":117,"x_max":810,"o":"m 347 467 l 117 696 l 117 1042 l 347 1042 l 347 635 l 463 519 l 579 635 l 579 1042 l 810 1042 l 810 696 l 579 467 l 579 0 l 347 0 l 347 467 m 640 1218 l 515 1090 l 418 1090 l 543 1218 l 640 1218 "},"Þ":{"ha":926,"x_min":117,"x_max":810,"o":"m 347 350 l 579 350 l 579 699 l 347 699 l 347 350 m 579 235 l 347 235 l 347 0 l 117 0 l 117 1042 l 347 1042 l 346 814 l 579 814 q 664 797 622 814 q 738 748 706 779 q 790 674 771 717 q 810 582 810 632 l 810 467 q 792 382 810 424 q 742 308 774 340 q 669 255 711 275 q 579 235 628 235 "},"ß":{"ha":1042,"x_min":117,"x_max":926,"o":"m 579 117 l 694 117 l 694 579 l 585 581 l 585 694 l 694 694 l 694 926 l 461 926 l 461 0 l 117 0 l 117 117 l 232 117 l 232 840 q 246 916 232 879 q 288 981 260 953 q 358 1025 317 1008 q 454 1042 400 1042 l 706 1042 q 867 985 807 1042 q 926 840 926 929 l 926 821 q 908 731 926 767 q 867 673 889 694 q 826 642 844 651 q 807 633 807 633 q 826 623 807 633 q 867 590 844 613 q 908 533 889 568 q 926 451 926 499 l 926 232 q 868 60 926 119 q 706 0 810 0 l 579 0 l 579 117 "},"à":{"ha":926,"x_min":117,"x_max":810,"o":"m 358 694 q 258 672 286 694 q 229 606 229 650 l 117 606 q 175 752 117 694 q 356 810 233 810 l 569 810 q 669 790 625 810 q 745 736 714 769 q 793 660 776 703 q 810 572 810 617 l 810 0 l 350 0 q 260 17 303 0 q 186 65 218 33 q 135 140 154 96 q 117 239 117 185 l 117 363 q 137 447 117 408 q 190 515 157 486 q 264 561 222 544 q 350 578 306 578 l 579 578 l 579 694 l 358 694 m 579 463 l 347 463 l 347 117 l 579 117 l 579 463 m 363 1111 l 558 879 l 443 879 l 247 1111 l 363 1111 "},"á":{"ha":926,"x_min":117,"x_max":810,"o":"m 358 694 q 258 672 286 694 q 229 606 229 650 l 117 606 q 175 752 117 694 q 356 810 233 810 l 569 810 q 669 790 625 810 q 745 736 714 769 q 793 660 776 703 q 810 572 810 617 l 810 0 l 350 0 q 260 17 303 0 q 186 65 218 33 q 135 140 154 96 q 117 239 117 185 l 117 363 q 137 447 117 408 q 190 515 157 486 q 264 561 222 544 q 350 578 306 578 l 579 578 l 579 694 l 358 694 m 579 463 l 347 463 l 347 117 l 579 117 l 579 463 m 683 1111 l 488 879 l 372 879 l 568 1111 l 683 1111 "},"â":{"ha":926,"x_min":117,"x_max":810,"o":"m 358 694 q 258 672 286 694 q 229 606 229 650 l 117 606 q 175 752 117 694 q 356 810 233 810 l 569 810 q 669 790 625 810 q 745 736 714 769 q 793 660 776 703 q 810 572 810 617 l 810 0 l 350 0 q 260 17 303 0 q 186 65 218 33 q 135 140 154 96 q 117 239 117 185 l 117 363 q 137 447 117 408 q 190 515 157 486 q 264 561 222 544 q 350 578 306 578 l 579 578 l 579 694 l 358 694 m 579 463 l 347 463 l 347 117 l 579 117 l 579 463 m 458 1150 l 674 938 l 557 938 l 458 1036 l 361 938 l 244 938 l 458 1150 "},"ã":{"ha":926,"x_min":117,"x_max":810,"o":"m 358 694 q 258 672 286 694 q 229 606 229 650 l 117 606 q 175 752 117 694 q 356 810 233 810 l 569 810 q 669 790 625 810 q 745 736 714 769 q 793 660 776 703 q 810 572 810 617 l 810 0 l 350 0 q 260 17 303 0 q 186 65 218 33 q 135 140 154 96 q 117 239 117 185 l 117 363 q 137 447 117 408 q 190 515 157 486 q 264 561 222 544 q 350 578 306 578 l 579 578 l 579 694 l 358 694 m 579 463 l 347 463 l 347 117 l 579 117 l 579 463 m 361 1078 q 416 1070 390 1078 q 464 1050 442 1063 q 516 1024 489 1036 q 567 1013 543 1013 q 604 1027 586 1013 q 640 1078 622 1042 l 754 1078 q 682 946 738 990 q 554 901 626 901 q 449 929 496 901 q 357 960 399 960 q 319 947 338 960 q 283 901 300 933 l 171 901 q 197 973 176 940 q 244 1029 217 1006 q 302 1065 271 1053 q 361 1078 333 1078 "},"ä":{"ha":926,"x_min":117,"x_max":810,"o":"m 358 694 q 258 672 286 694 q 229 606 229 650 l 117 606 q 175 752 117 694 q 356 810 233 810 l 569 810 q 669 790 625 810 q 745 736 714 769 q 793 660 776 703 q 810 572 810 617 l 810 0 l 350 0 q 260 17 303 0 q 186 65 218 33 q 135 140 154 96 q 117 239 117 185 l 117 363 q 137 447 117 408 q 190 515 157 486 q 264 561 222 544 q 350 578 306 578 l 579 578 l 579 694 l 358 694 m 579 463 l 347 463 l 347 117 l 579 117 l 579 463 m 211 1078 l 325 1078 l 325 963 l 211 963 l 211 1078 m 571 1078 l 685 1078 l 685 963 l 571 963 l 571 1078 "},"å":{"ha":926,"x_min":117,"x_max":810,"o":"m 358 694 q 258 672 286 694 q 229 606 229 650 l 117 606 q 175 752 117 694 q 356 810 233 810 l 569 810 q 669 790 625 810 q 745 736 714 769 q 793 660 776 703 q 810 572 810 617 l 810 0 l 350 0 q 260 17 303 0 q 186 65 218 33 q 135 140 154 96 q 117 239 117 185 l 117 363 q 137 447 117 408 q 190 515 157 486 q 264 561 222 544 q 350 578 306 578 l 579 578 l 579 694 l 358 694 m 579 463 l 347 463 l 347 117 l 579 117 l 579 463 m 463 1299 q 537 1283 501 1299 q 599 1242 572 1268 q 640 1181 625 1217 q 656 1107 656 1146 q 640 1032 656 1067 q 599 971 625 997 q 537 929 572 944 q 463 914 501 914 q 388 929 422 914 q 327 971 353 944 q 286 1032 301 997 q 271 1107 271 1067 q 286 1181 271 1146 q 327 1242 301 1217 q 388 1283 353 1268 q 463 1299 422 1299 m 354 1107 q 386 1030 354 1063 q 463 997 418 997 q 539 1030 507 997 q 571 1107 571 1063 q 539 1183 571 1151 q 463 1215 507 1215 q 386 1183 418 1215 q 354 1107 354 1151 "},"æ":{"ha":1389,"x_min":115,"x_max":1272,"o":"m 579 463 l 347 463 l 347 117 l 579 117 l 579 463 m 1042 463 l 1042 696 l 810 696 l 810 463 l 1042 463 m 822 810 l 1042 810 q 1124 789 1083 810 q 1199 735 1165 768 q 1252 659 1232 701 q 1272 572 1272 617 l 1272 347 l 810 347 l 810 117 l 1038 117 q 1082 125 1060 117 q 1122 149 1104 133 q 1149 186 1139 165 q 1160 232 1160 207 l 1272 232 q 1252 146 1272 188 q 1199 72 1232 104 q 1124 20 1165 40 q 1042 0 1083 0 l 351 0 q 260 17 303 0 q 186 65 218 35 q 135 138 154 96 q 117 229 117 181 l 117 356 q 135 440 117 400 q 185 511 153 481 q 260 560 217 542 q 351 578 303 578 l 579 578 l 579 694 l 351 694 q 263 675 297 694 q 228 606 228 656 l 115 606 q 178 756 115 701 q 351 810 242 810 l 579 810 q 649 797 618 810 q 697 772 679 785 q 747 797 715 785 q 822 810 778 810 "},"ç":{"ha":817,"x_min":117,"x_max":699,"o":"m 347 117 l 454 117 q 501 128 478 117 q 542 157 524 139 q 571 198 560 175 q 582 246 582 221 l 696 246 q 678 158 696 200 q 631 83 660 117 q 563 28 601 50 q 485 0 525 6 l 485 -85 q 475 -163 485 -131 q 438 -217 465 -196 q 365 -249 411 -239 q 244 -260 318 -260 l 244 -164 q 322 -150 293 -164 q 351 -86 351 -136 l 351 0 q 260 21 303 0 q 186 76 218 42 q 135 153 154 110 q 117 239 117 196 l 117 572 q 138 661 117 618 q 194 738 160 704 q 269 792 228 771 q 351 813 311 813 l 461 813 q 548 792 506 813 q 624 736 590 771 q 678 657 657 701 q 699 567 699 613 l 585 567 q 574 613 585 590 q 544 655 563 636 q 503 685 526 674 q 457 697 481 697 l 347 697 l 347 117 "},"è":{"ha":924,"x_min":117,"x_max":807,"o":"m 347 347 l 347 117 l 563 117 q 611 126 588 117 q 653 150 635 135 q 682 186 671 165 q 693 232 693 207 l 807 232 q 786 144 807 186 q 731 70 765 103 q 654 19 697 38 q 567 0 611 0 l 351 0 q 260 21 303 0 q 186 76 218 42 q 135 153 154 110 q 117 239 117 196 l 117 572 q 135 660 117 617 q 187 736 154 703 q 262 790 219 769 q 351 810 304 810 l 567 810 q 661 790 617 810 q 738 736 706 769 q 788 660 769 703 q 807 572 807 617 l 807 347 l 347 347 m 575 463 l 575 696 l 347 696 l 347 463 l 575 463 m 369 1111 l 565 879 l 450 879 l 254 1111 l 369 1111 "},"é":{"ha":924,"x_min":117,"x_max":807,"o":"m 347 347 l 347 117 l 563 117 q 611 126 588 117 q 653 150 635 135 q 682 186 671 165 q 693 232 693 207 l 807 232 q 786 144 807 186 q 731 70 765 103 q 654 19 697 38 q 567 0 611 0 l 351 0 q 260 21 303 0 q 186 76 218 42 q 135 153 154 110 q 117 239 117 196 l 117 572 q 135 660 117 617 q 187 736 154 703 q 262 790 219 769 q 351 810 304 810 l 567 810 q 661 790 617 810 q 738 736 706 769 q 788 660 769 703 q 807 572 807 617 l 807 347 l 347 347 m 575 463 l 575 696 l 347 696 l 347 463 l 575 463 m 683 1111 l 488 879 l 372 879 l 568 1111 l 683 1111 "},"ê":{"ha":924,"x_min":117,"x_max":807,"o":"m 347 347 l 347 117 l 563 117 q 611 126 588 117 q 653 150 635 135 q 682 186 671 165 q 693 232 693 207 l 807 232 q 786 144 807 186 q 731 70 765 103 q 654 19 697 38 q 567 0 611 0 l 351 0 q 260 21 303 0 q 186 76 218 42 q 135 153 154 110 q 117 239 117 196 l 117 572 q 135 660 117 617 q 187 736 154 703 q 262 790 219 769 q 351 810 304 810 l 567 810 q 661 790 617 810 q 738 736 706 769 q 788 660 769 703 q 807 572 807 617 l 807 347 l 347 347 m 575 463 l 575 696 l 347 696 l 347 463 l 575 463 m 458 1150 l 674 938 l 557 938 l 458 1036 l 361 938 l 244 938 l 458 1150 "},"ë":{"ha":924,"x_min":117,"x_max":807,"o":"m 347 347 l 347 117 l 563 117 q 611 126 588 117 q 653 150 635 135 q 682 186 671 165 q 693 232 693 207 l 807 232 q 786 144 807 186 q 731 70 765 103 q 654 19 697 38 q 567 0 611 0 l 351 0 q 260 21 303 0 q 186 76 218 42 q 135 153 154 110 q 117 239 117 196 l 117 572 q 135 660 117 617 q 187 736 154 703 q 262 790 219 769 q 351 810 304 810 l 567 810 q 661 790 617 810 q 738 736 706 769 q 788 660 769 703 q 807 572 807 617 l 807 347 l 347 347 m 575 463 l 575 696 l 347 696 l 347 463 l 575 463 m 218 1078 l 332 1078 l 332 963 l 218 963 l 218 1078 m 578 1078 l 692 1078 l 692 963 l 578 963 l 578 1078 "},"ì":{"ha":463,"x_min":25,"x_max":347,"o":"m 347 0 l 117 0 l 117 810 l 347 810 l 347 0 m 140 1111 l 336 879 l 221 879 l 25 1111 l 140 1111 "},"í":{"ha":463,"x_min":117,"x_max":482,"o":"m 347 0 l 117 0 l 117 810 l 347 810 l 347 0 m 482 1111 l 286 879 l 171 879 l 367 1111 l 482 1111 "},"î":{"ha":463,"x_min":15,"x_max":444,"o":"m 229 1150 l 444 938 l 328 938 l 229 1036 l 132 938 l 15 938 l 229 1150 m 347 0 l 117 0 l 117 810 l 347 810 l 347 0 "},"ï":{"ha":463,"x_min":-6,"x_max":468,"o":"m 347 0 l 117 0 l 117 810 l 347 810 l 347 0 m -6 1078 l 108 1078 l 108 963 l -6 963 l -6 1078 m 354 1078 l 468 1078 l 468 963 l 354 963 l 354 1078 "},"ð":{"ha":926,"x_min":117,"x_max":810,"o":"m 579 117 l 579 694 l 347 694 l 347 117 l 579 117 m 329 932 l 226 932 l 226 1053 l 390 1053 l 432 1133 l 518 1097 q 512 1086 517 1096 q 501 1065 507 1076 q 494 1053 494 1053 l 682 1053 q 731 1042 707 1053 q 772 1015 754 1032 q 799 976 789 999 q 810 928 810 953 l 810 239 q 792 145 810 189 q 744 69 775 101 q 669 19 713 38 q 572 0 625 0 l 353 0 q 257 19 300 0 q 183 69 214 38 q 134 145 151 101 q 117 239 117 189 l 117 572 q 135 663 117 619 q 185 738 153 706 q 260 790 217 771 q 353 810 303 810 l 579 810 l 579 932 l 435 932 l 393 851 l 307 888 l 329 932 "},"ñ":{"ha":926,"x_min":117,"x_max":810,"o":"m 569 810 q 663 790 619 810 q 740 736 707 769 q 791 660 772 703 q 810 572 810 617 l 810 0 l 579 0 l 579 694 l 347 694 l 347 0 l 117 0 l 117 810 l 569 810 m 354 1078 q 409 1070 383 1078 q 457 1050 435 1063 q 509 1024 482 1036 q 560 1013 536 1013 q 597 1027 579 1013 q 633 1078 615 1042 l 747 1078 q 675 946 731 990 q 547 901 619 901 q 442 929 489 901 q 350 960 392 960 q 312 947 331 960 q 276 901 293 933 l 164 901 q 190 973 169 940 q 237 1029 210 1006 q 295 1065 264 1053 q 354 1078 326 1078 "},"ò":{"ha":926,"x_min":117,"x_max":810,"o":"m 353 0 q 257 19 300 0 q 183 69 214 38 q 134 145 151 101 q 117 239 117 189 l 117 572 q 135 663 117 619 q 185 738 153 706 q 260 790 217 771 q 353 810 303 810 l 572 810 q 669 790 625 810 q 744 738 713 771 q 792 663 775 706 q 810 572 810 619 l 810 239 q 792 145 810 189 q 744 69 775 101 q 669 19 713 38 q 572 0 625 0 l 353 0 m 579 117 l 579 694 l 347 694 l 347 117 l 579 117 m 342 1111 l 538 879 l 422 879 l 226 1111 l 342 1111 "},"ó":{"ha":926,"x_min":117,"x_max":810,"o":"m 353 0 q 257 19 300 0 q 183 69 214 38 q 134 145 151 101 q 117 239 117 189 l 117 572 q 135 663 117 619 q 185 738 153 706 q 260 790 217 771 q 353 810 303 810 l 572 810 q 669 790 625 810 q 744 738 713 771 q 792 663 775 706 q 810 572 810 619 l 810 239 q 792 145 810 189 q 744 69 775 101 q 669 19 713 38 q 572 0 625 0 l 353 0 m 579 117 l 579 694 l 347 694 l 347 117 l 579 117 m 683 1111 l 488 879 l 372 879 l 568 1111 l 683 1111 "},"ô":{"ha":926,"x_min":117,"x_max":810,"o":"m 353 0 q 257 19 300 0 q 183 69 214 38 q 134 145 151 101 q 117 239 117 189 l 117 572 q 135 663 117 619 q 185 738 153 706 q 260 790 217 771 q 353 810 303 810 l 572 810 q 669 790 625 810 q 744 738 713 771 q 792 663 775 706 q 810 572 810 619 l 810 239 q 792 145 810 189 q 744 69 775 101 q 669 19 713 38 q 572 0 625 0 l 353 0 m 579 117 l 579 694 l 347 694 l 347 117 l 579 117 m 458 1150 l 674 938 l 557 938 l 458 1036 l 361 938 l 244 938 l 458 1150 "},"õ":{"ha":926,"x_min":117,"x_max":810,"o":"m 353 0 q 257 19 300 0 q 183 69 214 38 q 134 145 151 101 q 117 239 117 189 l 117 572 q 135 663 117 619 q 185 738 153 706 q 260 790 217 771 q 353 810 303 810 l 572 810 q 669 790 625 810 q 744 738 713 771 q 792 663 775 706 q 810 572 810 619 l 810 239 q 792 145 810 189 q 744 69 775 101 q 669 19 713 38 q 572 0 625 0 l 353 0 m 579 117 l 579 694 l 347 694 l 347 117 l 579 117 m 368 1078 q 423 1070 397 1078 q 471 1050 449 1063 q 523 1024 496 1036 q 574 1013 550 1013 q 611 1027 593 1013 q 647 1078 629 1042 l 761 1078 q 689 946 744 990 q 561 901 633 901 q 456 929 503 901 q 364 960 406 960 q 326 947 344 960 q 290 901 307 933 l 178 901 q 203 973 183 940 q 251 1029 224 1006 q 309 1065 278 1053 q 368 1078 340 1078 "},"ö":{"ha":926,"x_min":117,"x_max":810,"o":"m 353 0 q 257 19 300 0 q 183 69 214 38 q 134 145 151 101 q 117 239 117 189 l 117 572 q 135 663 117 619 q 185 738 153 706 q 260 790 217 771 q 353 810 303 810 l 572 810 q 669 790 625 810 q 744 738 713 771 q 792 663 775 706 q 810 572 810 619 l 810 239 q 792 145 810 189 q 744 69 775 101 q 669 19 713 38 q 572 0 625 0 l 353 0 m 579 117 l 579 694 l 347 694 l 347 117 l 579 117 m 218 1078 l 332 1078 l 332 963 l 218 963 l 218 1078 m 578 1078 l 692 1078 l 692 963 l 578 963 l 578 1078 "},"÷":{"ha":810,"x_min":117,"x_max":694,"o":"m 694 579 l 694 463 l 117 463 l 117 579 l 694 579 m 461 347 l 461 232 l 347 232 l 347 347 l 461 347 m 461 810 l 461 694 l 347 694 l 347 810 l 461 810 "},"ø":{"ha":926,"x_min":-18,"x_max":914,"o":"m 356 0 q 273 13 307 0 q 216 40 239 25 q 183 68 193 56 q 172 81 172 81 l 78 -4 l -18 103 l 117 221 l 117 572 q 135 665 117 622 q 185 740 153 708 q 262 791 218 772 q 356 810 306 810 l 575 810 q 656 797 621 810 q 706 772 690 783 q 722 758 721 760 l 813 839 l 914 735 l 801 636 q 806 618 801 636 q 810 567 810 600 l 810 235 q 792 143 810 186 q 742 68 774 100 q 667 18 710 36 q 575 0 625 0 l 356 0 m 347 235 l 347 117 l 579 117 l 579 439 l 347 235 m 579 631 l 579 694 l 347 694 l 347 426 l 579 631 "},"ù":{"ha":926,"x_min":117,"x_max":810,"o":"m 356 0 q 262 18 306 0 q 185 68 218 36 q 135 143 153 100 q 117 235 117 186 l 117 810 l 347 810 l 347 115 l 579 115 l 579 810 l 810 810 l 810 0 l 356 0 m 363 1111 l 558 879 l 443 879 l 247 1111 l 363 1111 "},"ú":{"ha":926,"x_min":117,"x_max":810,"o":"m 356 0 q 262 18 306 0 q 185 68 218 36 q 135 143 153 100 q 117 235 117 186 l 117 810 l 347 810 l 347 115 l 579 115 l 579 810 l 810 810 l 810 0 l 356 0 m 683 1111 l 488 879 l 372 879 l 568 1111 l 683 1111 "},"û":{"ha":926,"x_min":117,"x_max":810,"o":"m 356 0 q 262 18 306 0 q 185 68 218 36 q 135 143 153 100 q 117 235 117 186 l 117 810 l 347 810 l 347 115 l 579 115 l 579 810 l 810 810 l 810 0 l 356 0 m 458 1150 l 674 938 l 557 938 l 458 1036 l 361 938 l 244 938 l 458 1150 "},"ü":{"ha":926,"x_min":117,"x_max":810,"o":"m 356 0 q 262 18 306 0 q 185 68 218 36 q 135 143 153 100 q 117 235 117 186 l 117 810 l 347 810 l 347 115 l 579 115 l 579 810 l 810 810 l 810 0 l 356 0 m 218 1078 l 332 1078 l 332 963 l 218 963 l 218 1078 m 578 1078 l 692 1078 l 692 963 l 578 963 l 578 1078 "},"ý":{"ha":926,"x_min":117,"x_max":810,"o":"m 810 810 l 810 -39 q 789 -126 810 -83 q 734 -203 768 -169 q 657 -257 700 -236 q 569 -278 614 -278 l 356 -278 q 268 -258 311 -278 q 192 -207 225 -239 q 138 -133 158 -175 q 117 -47 117 -92 l 229 -47 q 240 -92 229 -71 q 269 -128 251 -112 q 311 -152 288 -143 q 358 -161 335 -161 l 579 -161 l 579 50 l 356 50 q 263 69 306 50 q 187 121 219 89 q 135 195 154 153 q 117 283 117 238 l 117 810 l 347 810 l 347 164 l 579 164 l 579 810 l 810 810 m 711 1111 l 515 879 l 400 879 l 596 1111 l 711 1111 "},"þ":{"ha":926,"x_min":117,"x_max":810,"o":"m 117 -232 l 117 1042 l 347 1042 l 347 810 l 572 810 q 666 790 622 810 q 742 736 710 769 q 792 660 774 703 q 810 572 810 618 l 810 239 q 793 153 810 196 q 745 76 776 110 q 670 21 714 42 q 572 0 626 0 l 347 0 l 347 -232 l 117 -232 m 347 117 l 579 117 l 579 694 l 347 694 l 347 117 "},"ÿ":{"ha":926,"x_min":117,"x_max":810,"o":"m 810 810 l 810 -39 q 789 -126 810 -83 q 734 -203 768 -169 q 657 -257 700 -236 q 569 -278 614 -278 l 356 -278 q 268 -258 311 -278 q 192 -207 225 -239 q 138 -133 158 -175 q 117 -47 117 -92 l 229 -47 q 240 -92 229 -71 q 269 -128 251 -112 q 311 -152 288 -143 q 358 -161 335 -161 l 579 -161 l 579 50 l 356 50 q 263 69 306 50 q 187 121 219 89 q 135 195 154 153 q 117 283 117 238 l 117 810 l 347 810 l 347 164 l 579 164 l 579 810 l 810 810 m 218 1078 l 332 1078 l 332 963 l 218 963 l 218 1078 m 578 1078 l 692 1078 l 692 963 l 578 963 l 578 1078 "},"":{"ha":0,"x_min":0,"x_max":0,"o":""},"":{"ha":0,"x_min":0,"x_max":0,"o":""},"":{"ha":0,"x_min":0,"x_max":0,"o":""},"":{"ha":1314,"x_min":106,"x_max":1199,"o":"m 557 621 l 557 424 l 750 424 l 750 621 l 557 621 m 478 697 l 478 842 q 469 903 478 874 q 442 954 460 932 q 397 990 424 976 q 333 1003 369 1003 q 224 958 265 1003 q 182 843 182 914 q 226 738 182 778 q 335 697 271 697 l 478 697 m 478 621 l 331 621 q 242 637 283 621 q 171 682 201 653 q 123 753 140 711 q 106 846 106 794 q 122 937 106 896 q 169 1008 139 978 q 240 1056 199 1039 q 331 1072 282 1072 q 430 1055 388 1072 q 501 1007 472 1038 q 543 935 529 976 q 557 846 557 893 l 557 697 l 750 697 l 750 846 q 764 935 750 893 q 806 1007 778 976 q 876 1055 835 1038 q 972 1072 918 1072 q 1063 1056 1022 1072 q 1135 1008 1104 1039 q 1182 937 1165 978 q 1199 846 1199 896 q 1181 753 1199 794 q 1132 682 1163 711 q 1060 637 1101 653 q 974 621 1019 621 l 828 621 l 828 424 l 974 424 q 1060 408 1019 424 q 1132 365 1101 393 q 1181 295 1163 336 q 1199 203 1199 254 q 1182 111 1199 153 q 1135 38 1165 69 q 1063 -10 1104 7 q 972 -28 1022 -28 q 873 -10 915 -28 q 803 40 831 8 q 763 112 776 71 q 750 200 750 153 l 750 347 l 557 347 l 557 200 q 543 112 557 153 q 501 40 529 71 q 431 -10 472 8 q 333 -28 389 -28 q 242 -10 283 -28 q 170 38 200 7 q 123 111 140 69 q 106 203 106 153 q 123 295 106 254 q 171 365 140 336 q 242 408 201 393 q 331 424 283 424 l 478 424 l 478 621 m 971 697 q 1030 708 1001 697 q 1080 738 1058 718 q 1114 784 1101 757 q 1126 843 1126 811 q 1083 958 1126 914 q 972 1003 1039 1003 q 909 990 936 1003 q 864 954 882 976 q 837 903 846 932 q 828 842 828 874 l 828 697 l 971 697 m 828 347 l 828 204 q 837 143 828 172 q 864 92 846 114 q 909 57 882 69 q 972 44 936 44 q 1083 88 1039 44 q 1126 203 1126 132 q 1114 262 1126 235 q 1080 308 1101 289 q 1030 337 1058 326 q 971 347 1001 347 l 828 347 m 335 347 q 226 308 271 347 q 182 203 182 268 q 224 88 182 132 q 333 44 265 44 q 397 57 369 44 q 442 92 424 69 q 469 143 460 114 q 478 204 478 172 l 478 347 l 335 347 "},"":{"ha":1272,"x_min":104,"x_max":1167,"o":"m 426 0 l 361 0 l 104 258 l 104 544 l 399 250 l 1167 1018 l 1167 742 l 426 0 "},"":{"ha":1042,"x_min":106,"x_max":939,"o":"m 106 439 l 526 858 l 939 443 l 524 22 l 106 439 "},"":{"ha":1250,"x_min":94,"x_max":1143,"o":"m 94 533 q 117 668 94 608 q 179 769 139 728 q 275 834 219 811 q 397 857 331 857 q 478 848 438 857 q 550 817 519 839 q 603 783 583 794 q 646 772 622 772 q 696 782 671 772 q 753 817 721 792 q 813 848 776 838 q 894 860 850 858 q 982 844 936 858 q 1065 804 1028 831 q 1092 776 1079 793 q 1108 750 1106 758 q 1086 725 1108 750 q 1039 662 1064 700 q 995 578 1014 624 q 983 493 976 533 q 1015 421 989 456 q 1069 359 1040 386 q 1120 315 1097 332 q 1143 299 1143 299 q 1105 219 1132 272 q 1037 112 1078 165 q 943 18 996 58 q 828 -22 890 -22 q 706 32 751 -22 q 677 53 694 46 q 642 60 660 60 q 606 52 622 58 q 578 32 589 46 q 528 -5 556 7 q 469 -17 500 -17 q 385 10 429 -17 q 300 81 342 36 q 221 182 258 125 q 156 300 183 239 q 111 422 128 361 q 94 533 94 482 m 621 865 q 639 939 621 901 q 686 1008 657 976 q 751 1059 715 1039 q 821 1082 786 1079 q 837 1075 835 1082 q 838 1056 839 1068 q 817 985 833 1019 q 774 920 800 950 q 717 869 749 890 q 650 839 685 847 q 627 844 633 835 q 621 865 621 854 "},"":{"ha":810,"x_min":117,"x_max":694,"o":"m 117 461 l 117 579 l 694 579 l 694 461 l 117 461 "},"":{"ha":1042,"x_min":117,"x_max":926,"o":"m 561 463 l 926 463 l 926 347 l 513 347 l 461 232 l 340 232 l 393 347 l 117 347 l 117 463 l 439 463 l 493 579 l 117 579 l 117 694 l 539 694 l 590 810 l 708 810 l 658 694 l 926 694 l 926 579 l 613 579 l 561 463 "},"":{"ha":1621,"x_min":117,"x_max":1506,"o":"m 689 517 q 669 544 689 517 q 617 606 649 572 q 544 667 585 639 q 463 694 504 694 l 318 694 q 270 686 288 694 q 244 662 253 678 q 234 625 236 646 q 232 579 232 604 l 232 461 q 234 415 232 436 q 244 379 236 394 q 270 356 253 364 q 318 347 288 347 l 492 347 q 557 374 522 347 q 621 432 592 400 q 669 490 650 464 q 689 517 689 517 m 831 479 q 813 453 829 478 q 765 392 796 429 q 701 319 735 354 q 630 258 667 283 q 563 232 593 232 l 246 232 q 194 242 218 232 q 153 269 171 251 q 126 310 136 286 q 117 360 117 333 l 117 683 q 153 773 117 736 q 246 810 189 810 l 492 810 q 581 788 538 810 q 661 735 625 765 q 725 673 697 706 q 767 620 753 640 q 783 599 782 600 q 806 620 785 600 q 864 673 828 640 q 940 735 900 706 q 1022 788 981 765 q 1090 810 1063 810 l 1375 810 q 1469 773 1432 810 q 1506 683 1506 736 l 1506 360 q 1496 310 1506 333 q 1469 269 1486 286 q 1427 242 1451 251 q 1375 232 1403 232 l 1090 232 q 1028 258 1063 232 q 959 319 993 283 q 895 392 925 354 q 849 453 865 429 q 831 479 832 478 m 1161 347 l 1304 347 q 1351 358 1333 347 q 1376 385 1368 368 q 1387 426 1385 403 q 1389 474 1389 449 l 1389 579 q 1387 625 1389 604 q 1376 662 1385 646 q 1351 686 1368 678 q 1304 694 1333 694 l 1161 694 q 1083 667 1121 694 q 1016 606 1046 639 q 968 544 986 572 q 950 517 950 517 q 969 490 950 517 q 1020 432 989 464 q 1088 374 1051 400 q 1161 347 1125 347 "},"":{"ha":694,"x_min":118,"x_max":594,"o":"m 594 117 l 594 0 l 118 0 l 118 117 l 594 117 m 563 228 l 419 228 l 131 518 l 419 810 l 563 810 l 275 518 l 563 228 "},"":{"ha":694,"x_min":117,"x_max":603,"o":"m 579 115 l 579 0 l 117 0 l 117 115 l 579 115 m 168 810 l 313 810 l 603 519 l 313 228 l 168 228 l 458 519 l 168 810 "},"":{"ha":926,"x_min":117,"x_max":810,"o":"m 244 0 q 198 10 221 0 q 157 39 175 21 q 128 79 139 57 q 117 125 117 101 l 117 382 q 147 519 117 453 q 226 635 176 585 q 340 716 275 686 q 474 746 404 746 l 474 810 l 232 810 l 232 926 l 522 926 q 642 903 589 926 q 733 841 696 881 q 790 747 771 801 q 810 631 810 693 l 810 253 q 791 159 810 204 q 740 78 772 114 q 665 22 707 43 q 575 0 622 0 l 244 0 m 353 117 l 514 117 q 565 140 542 117 q 588 192 588 163 l 588 579 l 479 579 q 433 569 456 579 q 392 540 410 558 q 364 500 375 522 q 353 456 353 478 l 353 117 "},"":{"ha":1042,"x_min":117,"x_max":926,"o":"m 117 1042 l 926 1042 l 926 810 l 810 810 l 810 926 l 426 926 l 819 550 l 415 117 l 810 117 l 810 232 l 926 232 l 926 0 l 117 0 l 117 121 l 538 550 l 117 939 l 117 1042 "},"":{"ha":1158,"x_min":117,"x_max":1042,"o":"m 463 926 l 463 0 l 232 0 l 232 926 l 117 926 l 117 1042 l 1042 1042 l 1042 926 l 926 926 l 926 0 l 694 0 l 694 926 l 463 926 "},"":{"ha":1350,"x_min":106,"x_max":1229,"o":"m 989 839 q 1051 845 1028 839 q 1086 865 1074 851 q 1102 903 1099 879 q 1106 961 1106 926 l 1229 961 l 1229 850 q 1222 799 1229 822 q 1193 758 1214 775 q 1135 733 1172 742 q 1042 724 1099 724 l 1042 129 l 915 0 l 810 0 l 810 724 l 579 724 l 579 129 l 450 0 l 347 0 l 347 724 q 281 715 306 724 q 245 689 257 706 q 231 651 233 672 q 228 604 228 629 l 106 604 l 106 717 q 139 806 106 772 q 233 839 172 839 l 989 839 "},"":{"ha":694,"x_min":117,"x_max":579,"o":"m 461 -103 q 451 -153 461 -129 q 424 -194 442 -176 q 382 -222 407 -211 q 328 -232 357 -232 l 117 -232 l 117 -117 l 232 -117 l 232 915 q 268 1006 232 969 q 364 1042 304 1042 l 579 1042 l 579 926 l 461 926 l 461 -103 "},"":{"ha":1158,"x_min":117,"x_max":1035,"o":"m 810 461 l 810 797 q 790 869 810 843 q 747 907 771 894 q 703 923 722 919 q 683 926 683 926 l 463 926 q 444 923 463 926 q 403 907 425 919 q 362 869 381 894 q 343 797 343 843 l 343 461 q 351 415 343 431 q 372 392 360 400 q 399 380 385 385 q 425 367 413 375 q 446 343 438 360 q 454 296 454 326 l 454 0 l 232 0 l 232 117 l 347 117 l 347 297 q 260 313 301 297 q 186 358 218 329 q 135 427 154 388 q 117 514 117 467 l 117 769 q 138 869 117 821 q 197 956 160 918 q 285 1018 235 994 q 394 1042 336 1042 l 761 1042 q 866 1018 817 1042 q 953 956 915 994 q 1013 869 990 918 q 1035 769 1035 821 l 1035 504 q 1017 419 1035 456 q 969 357 1000 382 q 898 319 939 332 q 810 306 857 306 l 810 117 l 926 117 l 926 0 l 694 0 l 694 296 q 703 347 694 329 q 724 373 711 364 q 752 386 738 382 q 780 398 767 390 q 801 419 793 406 q 810 461 810 433 "},"":{"ha":1389,"x_min":108,"x_max":1272,"o":"m 563 0 l 450 0 l 251 514 l 161 463 l 108 594 l 332 733 l 514 250 l 951 1160 l 1272 1160 l 1272 1039 l 1042 1039 l 563 0 "},"":{"ha":1158,"x_min":232,"x_max":926,"o":"m 461 347 q 376 319 407 347 q 346 233 346 292 l 232 233 l 232 290 q 279 418 232 374 q 406 463 326 463 l 696 463 q 810 578 810 463 l 926 578 l 926 519 q 879 392 926 438 q 753 347 832 347 l 461 347 m 461 606 q 376 577 407 606 q 346 492 346 549 l 232 492 l 232 549 q 279 676 232 632 q 406 721 326 721 l 696 721 q 810 835 810 721 l 926 835 l 926 778 q 879 650 926 694 q 753 606 832 606 l 461 606 "},"":{"ha":1092,"x_min":53,"x_max":1043,"o":"m 536 967 l 1043 0 l 53 0 l 536 967 m 228 117 l 863 117 l 538 733 l 228 117 "},"":{"ha":494,"x_min":0,"x_max":0,"o":""},"":{"ha":1081,"x_min":53,"x_max":1025,"o":"m 876 549 l 539 888 l 199 536 l 536 208 l 876 549 m 536 60 l 53 538 l 539 1032 l 1025 550 l 536 60 "},"":{"ha":1418,"x_min":142,"x_max":1308,"o":"m 142 593 q 169 752 142 685 q 244 864 197 819 q 355 931 292 908 q 489 953 418 953 q 576 942 535 953 q 649 908 617 931 q 709 872 689 883 q 757 860 729 860 q 812 871 785 860 q 875 908 839 882 q 942 944 903 932 q 1022 956 981 956 q 1112 944 1069 956 q 1188 914 1154 932 q 1242 874 1221 896 q 1271 832 1264 853 q 1249 818 1271 832 q 1200 774 1226 804 q 1151 696 1174 743 q 1129 582 1129 649 q 1157 460 1129 508 q 1219 383 1185 411 q 1281 343 1253 354 q 1308 332 1308 332 q 1284 278 1300 313 q 1245 205 1268 244 q 1192 124 1222 165 q 1124 50 1161 83 q 1044 -4 1088 17 q 953 -25 1001 -25 q 822 36 875 -25 q 750 67 796 67 q 711 59 731 67 q 681 36 692 51 q 625 -4 656 8 q 561 -17 594 -17 q 466 13 515 -17 q 370 90 417 42 q 282 202 324 139 q 209 333 240 265 q 160 467 178 400 q 142 593 142 535 m 728 961 q 749 1043 728 1001 q 801 1119 769 1085 q 873 1176 833 1154 q 950 1201 913 1199 q 967 1194 965 1201 q 968 1172 969 1188 q 945 1093 964 1132 q 898 1021 926 1054 q 834 964 869 988 q 760 932 799 940 q 734 938 740 928 q 728 961 728 949 "}}}
